<?xml version="1.0" standalone="no"?>
<!DOCTYPE svg PUBLIC "-//W3C//DTD SVG 20010904//EN"
 "http://www.w3.org/TR/2001/REC-SVG-20010904/DTD/svg10.dtd">
<svg version="1.0" xmlns="http://www.w3.org/2000/svg"
 width="794.000000pt" height="800.000000pt" viewBox="0 0 794.000000 800.000000"
 preserveAspectRatio="xMidYMid meet">

<g transform="translate(0.000000,800.000000) scale(0.100000,-0.100000)"
fill="#000000" stroke="none">
<path d="M3995 7533 c-16 -3 -35 -9 -42 -15 -7 -5 -18 -6 -25 -2 -10 5 -10 4
-2 -5 7 -7 35 -14 64 -16 36 -2 48 1 41 8 -15 15 -14 30 1 21 7 -4 8 -3 4 4
-4 7 -8 11 -9 11 -1 -1 -15 -4 -32 -6z"/>
<path d="M4107 7524 c-3 -3 -3 -12 -1 -19 7 -17 56 -5 62 16 5 12 3 12 -11 0
-11 -9 -17 -10 -17 -2 0 12 -22 15 -33 5z"/>
<path d="M4212 7518 c4 -16 56 -50 70 -46 6 2 -8 16 -31 31 -23 15 -40 22 -39
15z"/>
<path d="M3729 7494 c-22 -24 -22 -26 -4 -22 11 2 20 8 20 13 0 6 4 16 8 23
13 20 2 14 -24 -14z"/>
<path d="M4357 7497 c24 -11 46 -18 50 -14 11 12 -10 24 -52 30 l-40 5 42 -21z"/>
<path d="M3470 7495 c0 -21 29 -26 39 -7 7 14 4 17 -15 18 -14 1 -24 -4 -24
-11z"/>
<path d="M3633 7493 c9 -2 25 -2 35 0 9 3 1 5 -18 5 -19 0 -27 -2 -17 -5z"/>
<path d="M4335 7480 c3 -5 14 -10 23 -10 15 0 15 2 2 10 -20 13 -33 13 -25 0z"/>
<path d="M4550 7460 c8 -5 22 -10 30 -10 13 0 13 1 0 10 -8 5 -22 10 -30 10
-13 0 -13 -1 0 -10z"/>
<path d="M3569 7433 c-73 -4 -77 -5 -114 -43 l-39 -40 92 0 c51 0 92 4 92 8 0
5 11 22 25 38 14 16 25 32 25 37 0 4 -1 6 -2 5 -2 -1 -37 -4 -79 -5z"/>
<path d="M4698 7433 c7 -3 16 -2 19 1 4 3 -2 6 -13 5 -11 0 -14 -3 -6 -6z"/>
<path d="M3343 7413 c-47 -11 -73 -24 -105 -54 l-43 -39 50 6 c84 11 120 19
120 30 0 5 16 24 35 42 39 35 34 36 -57 15z"/>
<path d="M3684 7418 c-5 -7 -2 -9 7 -4 8 5 -1 -4 -18 -19 -41 -33 -42 -45 -3
-45 17 0 30 4 30 9 0 9 127 4 142 -5 4 -3 8 -1 8 5 0 5 -10 12 -22 14 -20 4
-19 4 5 6 15 0 27 5 27 10 0 5 3 16 6 25 5 14 -6 16 -84 16 -58 0 -93 -4 -98
-12z"/>
<path d="M3898 7406 c-5 -25 -5 -25 92 -28 67 -2 96 0 93 8 -2 6 3 11 11 11 8
0 13 -4 10 -8 -2 -4 0 -10 6 -14 5 -3 10 -1 10 4 0 13 138 13 185 1 22 -6 10
-8 -50 -10 -94 -3 -83 -7 32 -13 l81 -4 -16 25 c-12 18 -13 25 -3 31 16 11
-140 21 -309 21 l-138 0 -4 -24z"/>
<path d="M4748 7423 c6 -2 18 -2 25 0 6 3 1 5 -13 5 -14 0 -19 -2 -12 -5z"/>
<path d="M4570 7413 c0 -5 -37 -8 -82 -7 -46 0 -60 -1 -31 -3 28 -2 57 -10 63
-18 7 -8 18 -15 26 -15 7 0 25 -12 40 -27 l26 -28 -16 33 c-15 29 -15 32 -1
32 9 0 13 5 10 10 -3 6 0 10 7 10 9 0 9 3 -2 10 -18 12 -40 13 -40 3z"/>
<path d="M4798 7413 c7 -3 16 -2 19 1 4 3 -2 6 -13 5 -11 0 -14 -3 -6 -6z"/>
<path d="M3155 7393 c-11 -2 -29 -6 -41 -8 -22 -5 -128 -85 -121 -92 7 -7 108
35 128 53 10 9 25 14 33 11 7 -3 24 5 37 19 21 22 21 24 3 23 -10 -1 -28 -3
-39 -6z"/>
<path d="M4713 7395 c4 -5 0 -16 -9 -26 -14 -16 -12 -17 25 -21 45 -4 50 1 24
24 -21 17 -51 35 -40 23z"/>
<path d="M4810 7371 c0 -13 19 -22 110 -50 36 -11 74 -23 85 -26 11 -4 5 3
-13 14 -22 14 -32 27 -28 36 3 10 -1 15 -14 15 -14 0 -18 -5 -13 -16 5 -14 3
-15 -15 -5 -11 6 -22 15 -24 20 -5 15 -88 26 -88 12z"/>
<path d="M2918 7344 c-16 -8 -28 -17 -28 -20 0 -2 9 0 19 6 28 15 35 12 20 -7
-9 -11 -10 -14 -2 -9 16 9 37 46 26 46 -4 -1 -20 -8 -35 -16z"/>
<path d="M2969 7343 c-13 -17 -13 -17 6 -3 11 8 22 16 24 17 2 2 0 3 -6 3 -6
0 -17 -8 -24 -17z"/>
<path d="M4783 7325 c0 -8 7 -15 15 -15 12 0 12 3 2 15 -7 8 -13 15 -15 15 -1
0 -2 -7 -2 -15z"/>
<path d="M5024 7314 c3 -9 6 -17 6 -19 0 -7 71 -27 77 -22 5 5 -70 57 -83 57
-3 0 -3 -7 0 -16z"/>
<path d="M2752 7290 c-23 -17 -42 -32 -42 -35 0 -13 20 -2 56 30 48 43 41 45
-14 5z"/>
<path d="M3451 7301 c-73 -6 -74 -6 -114 -54 -22 -26 -38 -48 -36 -50 2 -1 54
-1 114 1 l110 4 20 46 c11 25 22 50 23 54 2 4 -7 7 -20 6 -12 -1 -56 -4 -97
-7z"/>
<path d="M3607 7283 c-8 -16 -18 -38 -21 -50 l-7 -23 125 0 126 0 0 28 c0 15
3 37 6 50 6 22 6 22 -105 22 l-110 0 -14 -27z"/>
<path d="M3880 7293 c0 -12 3 -14 8 -6 4 6 32 13 62 16 l55 3 -62 2 c-54 2
-63 0 -63 -15z"/>
<path d="M3195 7291 c-48 -12 -69 -27 -110 -77 l-38 -46 94 7 c90 6 95 8 121
38 15 18 34 44 43 60 l16 27 -48 -1 c-26 -1 -61 -4 -78 -8z"/>
<path d="M2980 7262 c-43 -13 -65 -27 -99 -64 l-44 -48 39 0 c86 0 106 10 157
71 54 67 50 70 -53 41z"/>
<path d="M5120 7270 c0 -5 4 -10 9 -10 5 0 18 -3 28 -6 16 -5 16 -4 -1 10 -23
18 -36 20 -36 6z"/>
<path d="M2855 7250 c-3 -5 -21 -10 -39 -10 -33 0 -88 -31 -154 -87 l-33 -28
58 1 c75 2 84 4 53 14 l-25 8 25 1 c17 1 44 20 80 56 30 30 51 55 48 55 -4 0
-10 -4 -13 -10z m-138 -86 c-3 -3 -12 -4 -19 -1 -8 3 -5 6 6 6 11 1 17 -2 13
-5z"/>
<path d="M2625 7190 c-3 -5 -17 -10 -31 -10 -14 0 -52 -19 -85 -42 l-61 -43
34 -6 c18 -3 41 -2 50 3 27 13 124 107 111 108 -6 0 -15 -4 -18 -10z"/>
<path d="M2466 7167 c-36 -20 -59 -48 -39 -47 9 1 91 70 83 70 -3 0 -23 -10
-44 -23z"/>
<path d="M4920 7160 c6 -11 13 -20 16 -20 2 0 0 9 -6 20 -6 11 -13 20 -16 20
-2 0 0 -9 6 -20z"/>
<path d="M3372 7163 l-92 -4 -35 -69 -35 -70 129 0 129 0 25 75 24 75 -26 -2
c-14 -1 -68 -4 -119 -5z"/>
<path d="M3546 7113 c-10 -32 -20 -66 -22 -75 -5 -17 6 -18 125 -18 72 0 130
3 130 8 -1 4 0 18 1 32 2 21 4 20 10 -10 6 -29 8 -31 9 -10 2 14 6 49 10 78
l7 52 -126 0 -126 0 -18 -57z"/>
<path d="M3111 7135 l-103 -10 -45 -68 -44 -69 28 6 c15 3 70 8 122 12 l93 6
30 65 c16 36 28 66 26 67 -2 1 -50 -3 -107 -9z"/>
<path d="M5140 7146 c0 -2 8 -10 18 -17 15 -13 16 -12 3 4 -13 16 -21 21 -21
13z"/>
<path d="M2385 7120 c-3 -6 1 -7 9 -4 18 7 21 14 7 14 -6 0 -13 -4 -16 -10z"/>
<path d="M2825 7109 c17 -7 16 -8 -9 -6 -24 2 -38 -9 -91 -68 -35 -38 -62 -71
-61 -73 2 -1 48 3 103 9 l99 11 29 47 c16 25 35 56 43 69 l14 22 -73 -1 c-53
0 -68 -3 -54 -10z"/>
<path d="M4715 7100 c11 -40 48 -110 63 -123 8 -6 -2 22 -23 63 -41 83 -51 97
-40 60z"/>
<path d="M2333 7084 l-28 -26 33 22 c29 20 39 30 28 30 -3 0 -18 -12 -33 -26z"/>
<path d="M2364 7074 l-39 -36 43 32 c37 28 49 40 39 40 -2 0 -21 -16 -43 -36z"/>
<path d="M4965 7099 c5 -8 20 -32 34 -54 14 -22 57 -106 97 -186 40 -81 77
-150 83 -153 14 -9 -12 51 -65 149 -24 45 -44 87 -44 94 0 14 -87 148 -102
157 -7 5 -8 2 -3 -7z"/>
<path d="M2633 7071 c-61 -6 -64 -7 -132 -75 -39 -39 -69 -71 -68 -72 2 -2 39
3 83 10 75 12 84 16 118 54 52 57 79 92 69 90 -4 0 -36 -4 -70 -7z"/>
<path d="M2440 7030 l35 -7 -33 -2 c-19 0 -45 -10 -59 -20 -13 -11 -30 -18
-37 -15 -6 2 -39 -20 -72 -50 l-59 -55 45 1 c75 1 94 10 164 86 l68 72 -43 -1
-44 -2 35 -7z"/>
<path d="M2359 7003 c-13 -16 -12 -17 4 -4 9 7 17 15 17 17 0 8 -8 3 -21 -13z"/>
<path d="M5268 7009 c6 -7 12 -17 12 -22 0 -4 -6 -5 -12 -1 -7 4 -9 3 -5 -1 4
-5 14 -10 22 -11 11 -2 12 2 5 16 -6 11 -16 22 -23 26 -9 5 -9 4 1 -7z"/>
<path d="M2212 6977 c-12 -7 -20 -16 -17 -19 4 -3 -2 -5 -12 -4 -10 0 -17 -5
-15 -12 1 -8 -2 -11 -7 -8 -10 6 -121 -80 -121 -94 0 -4 10 -6 23 -3 79 18 97
25 97 38 0 8 11 20 24 27 31 17 85 81 60 71 -12 -4 -15 -3 -10 5 9 15 7 15
-22 -1z"/>
<path d="M3324 6982 l-132 -3 -41 -96 c-22 -53 -40 -97 -38 -98 7 -4 297 11
301 16 8 8 48 169 44 177 -2 4 -62 6 -134 4z"/>
<path d="M3505 6979 c-7 -21 -45 -171 -45 -181 0 -10 88 -10 223 -1 l97 6 0
29 c0 15 -5 28 -11 28 -6 0 -8 7 -5 16 3 8 2 23 -2 32 -6 10 -4 27 4 42 13 24
14 24 14 3 0 -12 -4 -23 -9 -25 -5 -1 -3 -9 5 -16 12 -11 14 -7 14 28 l0 40
-102 0 c-57 0 -120 3 -140 6 -27 5 -39 3 -43 -7z m262 -161 c-3 -8 -6 -5 -6 6
-1 11 2 17 5 13 3 -3 4 -12 1 -19z"/>
<path d="M3070 6963 c-30 -1 -83 -5 -117 -9 l-63 -6 -54 -105 c-54 -105 -54
-105 -27 -100 15 3 77 9 138 13 l112 7 34 81 c42 100 51 127 40 124 -4 -1 -33
-3 -63 -5z"/>
<path d="M4780 6948 c0 -13 73 -194 82 -203 5 -5 0 14 -11 43 -65 162 -71 177
-71 160z"/>
<path d="M2732 6926 l-92 -11 -38 -55 c-21 -30 -49 -72 -61 -92 l-23 -38 49 1
48 2 -40 7 c-22 4 -34 8 -27 9 6 0 12 8 12 17 0 11 5 14 16 10 9 -3 18 -6 20
-6 3 0 3 -4 0 -8 -3 -5 9 -6 26 -4 19 3 34 -1 40 -9 7 -11 11 -11 15 -1 2 6
12 12 22 12 9 0 23 6 30 13 10 10 11 9 6 -5 -4 -9 -16 -19 -28 -21 -22 -4 -22
-4 0 -6 16 -1 30 10 47 37 36 57 87 162 79 161 -5 -1 -50 -7 -101 -13z"/>
<path d="M2040 6904 c-19 -15 -54 -35 -77 -45 -46 -21 -53 -33 -26 -43 11 -4
26 2 42 19 14 14 44 41 66 60 47 40 45 45 -5 9z"/>
<path d="M2478 6886 c-50 -7 -84 -18 -98 -31 -23 -20 -122 -156 -118 -161 4
-2 201 25 203 28 1 2 11 17 22 33 37 56 85 145 76 144 -4 -1 -42 -7 -85 -13z"/>
<path d="M5366 6840 c32 -67 106 -191 111 -186 7 6 -80 166 -107 197 l-21 24
17 -35z"/>
<path d="M2237 6833 c-20 -2 -35 -8 -32 -14 3 -5 -1 -6 -10 -3 -10 4 -26 -3
-41 -17 -35 -33 -127 -149 -122 -154 2 -2 37 1 78 7 55 8 79 16 90 31 75 102
108 157 92 155 -9 -1 -34 -3 -55 -5z"/>
<path d="M1880 6815 c-11 -13 -10 -14 4 -9 9 3 16 10 16 15 0 13 -6 11 -20 -6z"/>
<path d="M2085 6790 c-3 -5 -21 -10 -39 -10 -26 0 -46 -12 -94 -55 -33 -31
-74 -73 -91 -94 l-31 -38 63 13 c67 13 70 16 163 137 25 31 43 57 40 57 -3 0
-8 -4 -11 -10z"/>
<path d="M6028 6768 c12 -12 24 -19 27 -16 8 7 -23 38 -38 38 -6 0 -2 -10 11
-22z"/>
<path d="M3233 6750 c-68 -4 -125 -9 -128 -11 -2 -3 -22 -56 -43 -117 l-39
-112 161 6 c89 4 164 9 167 13 3 3 16 51 29 106 12 55 25 106 27 113 4 8 -4
11 -23 10 -16 0 -84 -4 -151 -8z"/>
<path d="M3614 6752 l-160 -2 -23 -111 c-12 -61 -21 -112 -19 -114 2 -2 83 -1
180 2 l177 6 6 51 c4 28 5 78 3 111 l-3 60 -161 -3z"/>
<path d="M1868 6726 c-21 -12 -47 -31 -58 -41 -14 -13 -20 -14 -20 -5 0 8 -13
2 -30 -15 -17 -16 -28 -35 -25 -43 2 -7 1 -11 -4 -8 -9 6 -81 -67 -81 -81 0
-4 19 11 41 32 33 32 38 34 24 13 -16 -26 -16 -28 0 -28 23 0 137 111 130 127
-2 8 -1 12 4 9 5 -3 21 10 35 29 15 19 26 35 24 35 -2 0 -20 -11 -40 -24z"/>
<path d="M3830 6668 c0 -40 -3 -90 -6 -110 l-7 -38 69 2 69 1 -60 7 c-42 4
-55 8 -42 14 12 6 17 20 17 51 0 24 -5 45 -11 47 -5 2 -13 22 -16 45 -5 41 -5
42 28 46 l34 4 -37 1 -38 2 0 -72z"/>
<path d="M6100 6730 c0 -5 5 -10 11 -10 5 0 7 5 4 10 -3 6 -8 10 -11 10 -2 0
-4 -4 -4 -10z"/>
<path d="M6165 6710 c10 -11 20 -20 23 -20 3 0 -3 9 -13 20 -10 11 -20 20 -23
20 -3 0 3 -9 13 -20z"/>
<path d="M4863 6690 c58 -197 71 -239 74 -236 5 5 -56 216 -69 236 -8 13 -9
13 -5 0z"/>
<path d="M4531 6674 c0 -11 3 -14 6 -6 3 7 2 16 -1 19 -3 4 -6 -2 -5 -13z"/>
<path d="M5170 6688 c0 -4 28 -82 89 -242 4 -11 10 -15 14 -10 6 10 -78 231
-94 249 -5 5 -9 6 -9 3z"/>
<path d="M5690 6670 c6 -11 13 -20 16 -20 2 0 0 9 -6 20 -6 11 -13 20 -16 20
-2 0 0 -9 6 -20z"/>
<path d="M2323 6651 l-101 -15 -61 -105 c-33 -58 -59 -107 -57 -109 2 -1 51 2
108 9 l105 12 57 109 c32 60 57 110 55 112 -2 1 -50 -5 -106 -13z"/>
<path d="M4541 6634 c0 -11 3 -14 6 -6 3 7 2 16 -1 19 -3 4 -6 -2 -5 -13z"/>
<path d="M5528 6515 c31 -69 60 -125 64 -125 10 0 3 16 -57 144 -27 58 -53
106 -57 106 -3 0 19 -56 50 -125z"/>
<path d="M5722 6620 c8 -14 43 -78 77 -142 56 -105 81 -143 81 -122 0 10 -136
246 -155 269 -16 19 -16 19 -3 -5z"/>
<path d="M1638 6597 c-26 -18 -69 -60 -97 -95 -52 -65 -72 -103 -23 -44 15 18
33 32 39 32 7 0 22 8 34 18 31 26 112 122 102 122 -4 -1 -29 -15 -55 -33z
m-28 -62 c-7 -8 -20 -15 -28 -15 -13 0 -12 3 4 15 25 19 40 19 24 0z"/>
<path d="M2059 6597 l-66 -10 -61 -91 c-33 -50 -64 -99 -68 -110 -6 -16 -4
-17 14 -7 11 6 51 14 90 17 69 7 69 7 90 48 12 22 37 69 57 104 22 37 31 61
23 60 -7 0 -43 -5 -79 -11z"/>
<path d="M4552 6590 c0 -14 2 -19 5 -12 2 6 2 18 0 25 -3 6 -5 1 -5 -13z"/>
<path d="M6234 6588 c-4 -6 7 -23 26 -38 22 -18 31 -33 27 -43 -3 -8 0 -18 7
-20 9 -4 12 3 10 19 -3 31 -60 98 -70 82z"/>
<path d="M1867 6560 c-62 -20 -101 -46 -90 -63 3 -6 1 -7 -5 -3 -7 4 -33 -26
-66 -76 -31 -45 -54 -83 -53 -85 4 -4 93 24 119 38 13 6 27 18 31 26 5 7 11
11 15 9 7 -4 116 164 110 169 -2 2 -29 -5 -61 -15z"/>
<path d="M4561 6544 c0 -11 3 -14 6 -6 3 7 2 16 -1 19 -3 4 -6 -2 -5 -13z"/>
<path d="M6305 6550 c40 -57 88 -109 96 -104 5 3 8 0 7 -7 -2 -6 19 -25 46
-41 l50 -30 -39 49 c-45 56 -65 74 -76 68 -4 -3 -18 7 -31 22 -29 34 -69 67
-53 43z"/>
<path d="M1715 6530 c-16 -7 -17 -9 -3 -9 9 -1 20 4 23 9 7 11 7 11 -20 0z"/>
<path d="M6370 6526 c0 -2 7 -9 15 -16 13 -11 14 -10 9 4 -5 14 -24 23 -24 12z"/>
<path d="M1494 6488 l-29 -33 33 29 c30 28 37 36 29 36 -2 0 -16 -15 -33 -32z"/>
<path d="M4572 6500 c0 -14 2 -19 5 -12 2 6 2 18 0 25 -3 6 -5 1 -5 -13z"/>
<path d="M1688 6493 c7 -3 16 -2 19 1 4 3 -2 6 -13 5 -11 0 -14 -3 -6 -6z"/>
<path d="M3390 6485 c-1 0 -11 -57 -24 -127 l-23 -128 214 0 213 0 -2 73 -2
72 -3 -67 -4 -68 -129 0 -130 0 0 40 c0 33 -3 40 -20 40 -16 0 -20 7 -20 30 0
17 -4 30 -9 30 -5 0 -17 19 -26 43 -15 37 -18 40 -26 22 l-9 -20 3 20 c2 19
11 20 189 23 171 2 187 1 191 -15 4 -14 5 -13 6 4 1 22 0 22 -194 25 -107 2
-195 3 -195 3z"/>
<path d="M1628 6473 c-10 -2 -34 -28 -55 -56 -48 -66 -107 -163 -91 -150 7 6
31 16 53 23 54 17 56 20 114 111 l51 79 -28 -1 c-15 -1 -35 -3 -44 -6z"/>
<path d="M3157 6470 c-76 -5 -141 -10 -144 -14 -3 -3 -18 -57 -33 -121 l-27
-116 166 7 c91 4 169 11 172 16 3 5 14 55 24 111 10 56 20 108 22 115 3 8 -3
11 -18 10 -13 0 -86 -4 -162 -8z"/>
<path d="M6475 6430 c21 -22 41 -40 44 -40 3 0 -13 18 -34 40 -21 22 -41 40
-44 40 -3 0 13 -18 34 -40z"/>
<path d="M2890 6450 c-36 -4 -101 -8 -146 -9 l-80 -1 -23 -70 c-12 -39 -19
-75 -15 -82 4 -6 3 -8 -3 -5 -6 4 -14 0 -17 -9 -9 -24 -7 -28 9 -14 12 10 15
7 20 -13 6 -22 10 -24 58 -21 39 3 46 1 27 -5 -14 -5 -38 -9 -54 -10 -16 -1
-27 -4 -24 -7 4 -3 65 -2 137 2 l130 7 26 111 c14 61 28 117 30 124 2 6 1 11
-3 10 -4 0 -36 -4 -72 -8z m-188 -37 c-13 -3 -27 -16 -33 -30 -5 -14 -12 -24
-15 -21 -2 3 0 17 5 32 8 20 17 26 38 25 25 -2 25 -2 5 -6z"/>
<path d="M4584 6433 c2 -10 12 -67 22 -128 9 -60 21 -114 27 -120 6 -7 8 -2 4
15 -3 14 -14 76 -23 138 -10 61 -22 112 -27 112 -4 0 -6 -8 -3 -17z"/>
<path d="M1492 6416 c-12 -7 -50 -40 -85 -73 -34 -33 -72 -63 -85 -67 -12 -4
-22 -15 -22 -26 0 -21 -16 -36 -22 -20 -1 5 -13 -9 -26 -32 l-23 -42 27 25
c15 13 46 44 70 69 24 25 44 40 44 33 0 -7 -8 -17 -19 -22 -10 -6 -21 -18 -25
-27 -4 -9 9 -3 29 15 41 35 47 38 38 15 -20 -51 98 75 134 142 14 27 3 30 -35
10z m-92 -111 c-7 -8 -16 -15 -21 -15 -5 0 -1 9 8 20 9 11 19 17 21 15 3 -3
-1 -11 -8 -20z"/>
<path d="M4940 6426 c0 -23 64 -256 70 -256 9 0 -54 247 -64 258 -3 3 -6 2 -6
-2z"/>
<path d="M6550 6385 c19 -19 36 -35 39 -35 3 0 -10 16 -29 35 -19 19 -36 35
-39 35 -3 0 10 -16 29 -35z"/>
<path d="M3823 6330 c0 -47 2 -66 4 -42 2 23 2 61 0 85 -2 23 -4 4 -4 -43z"/>
<path d="M5271 6410 c-1 -20 87 -274 95 -277 6 -2 -9 53 -32 122 -38 109 -63
172 -63 155z"/>
<path d="M6376 6385 c3 -8 10 -13 16 -12 5 1 15 -7 21 -18 7 -11 26 -40 43
-65 36 -52 53 -84 30 -56 -9 11 -16 16 -16 10 0 -5 10 -20 21 -34 11 -14 18
-18 14 -10 -4 8 2 5 12 -7 20 -24 73 -42 73 -25 0 6 -26 46 -58 89 -68 91
-176 180 -156 128z"/>
<path d="M5583 6360 c13 -43 100 -250 104 -247 5 5 -72 200 -93 236 -9 14 -13
19 -11 11z"/>
<path d="M1331 6316 l-24 -31 28 27 c16 15 27 29 24 31 -2 3 -15 -10 -28 -27z"/>
<path d="M6560 6347 c0 -2 15 -16 33 -33 l32 -29 -29 33 c-28 30 -36 37 -36
29z"/>
<path d="M1928 6333 c7 -3 16 -2 19 1 4 3 -2 6 -13 5 -11 0 -14 -3 -6 -6z"/>
<path d="M1830 6322 c0 -5 14 -7 30 -4 17 2 30 6 30 8 0 2 -13 4 -30 4 -16 0
-30 -4 -30 -8z"/>
<path d="M5866 6317 c3 -10 9 -15 12 -12 3 3 0 11 -7 18 -10 9 -11 8 -5 -6z"/>
<path d="M6532 6293 c28 -49 101 -145 124 -163 14 -11 12 -7 -5 18 -12 17 -17
32 -11 32 6 0 13 -6 16 -14 6 -15 93 -80 99 -74 8 8 -28 65 -71 113 -51 56
-44 33 12 -40 19 -26 30 -45 22 -43 -7 2 -35 34 -63 70 -46 60 -124 138 -138
138 -4 0 3 -17 15 -37z"/>
<path d="M1695 6289 c-77 -20 -81 -24 -132 -123 -19 -39 -46 -88 -60 -109 -14
-22 -20 -36 -14 -32 6 3 18 20 27 36 10 19 21 29 30 25 8 -3 14 1 14 9 0 9 10
15 23 15 20 1 20 2 4 11 -9 5 -22 7 -29 3 -7 -4 -8 -3 -4 5 4 6 16 9 26 6 11
-3 20 0 24 10 3 8 12 15 21 15 8 0 15 9 15 20 0 13 7 20 18 20 11 0 27 9 37
20 10 11 23 20 29 20 10 0 50 60 44 65 -2 1 -34 -6 -73 -16z"/>
<path d="M5891 6265 c0 -5 6 -21 14 -35 8 -14 14 -20 14 -15 0 6 -6 21 -14 35
-8 14 -14 21 -14 15z"/>
<path d="M1500 6230 c-48 -15 -55 -21 -63 -51 -5 -19 -12 -38 -17 -44 -4 -5
-11 -31 -15 -57 -6 -43 -5 -46 12 -42 10 3 25 14 32 26 7 11 8 17 2 13 -18
-10 -12 21 6 36 14 12 16 12 9 -1 -4 -8 -1 -6 8 4 8 10 13 23 10 27 -3 5 -1 9
5 9 5 0 23 23 40 50 17 28 30 50 28 49 -1 -1 -27 -9 -57 -19z"/>
<path d="M3833 6233 c9 -2 23 -2 30 0 6 3 -1 5 -18 5 -16 0 -22 -2 -12 -5z"/>
<path d="M3694 6183 l-151 -4 -12 -112 c-6 -62 -11 -123 -11 -135 0 -22 2 -22
169 -22 l168 0 7 38 c3 20 6 83 6 140 0 76 -3 101 -12 100 -7 -1 -81 -4 -164
-5z"/>
<path d="M1189 6148 c-17 -24 -18 -29 -6 -19 18 14 42 51 33 51 -3 0 -15 -15
-27 -32z"/>
<path d="M3190 6173 c0 -5 -9 -60 -20 -123 -30 -172 -47 -154 141 -148 112 4
164 9 169 18 4 6 10 46 14 89 4 42 9 97 13 124 l6 47 -162 0 c-88 0 -161 -3
-161 -7z"/>
<path d="M5930 6175 c0 -5 5 -17 10 -25 5 -8 10 -10 10 -5 0 6 -5 17 -10 25
-5 8 -10 11 -10 5z"/>
<path d="M1319 6163 c-1 -5 -1 -11 0 -15 1 -8 -14 -12 -35 -9 -14 2 -54 -49
-90 -115 -14 -27 -35 -64 -46 -81 -22 -36 -12 -44 15 -13 9 11 23 17 31 14 9
-3 25 10 44 38 42 61 79 130 84 153 1 11 8 23 13 27 6 5 5 8 -2 8 -7 0 -14 -3
-14 -7z m-45 -105 c-26 -45 -67 -99 -71 -94 -3 3 12 28 33 56 36 47 54 65 38
38z"/>
<path d="M1213 6138 c-20 -26 -26 -41 -15 -34 12 7 36 46 29 46 -3 0 -9 -6
-14 -12z"/>
<path d="M1388 6145 c-3 -6 -17 -31 -32 -56 -19 -33 -22 -46 -12 -46 8 0 12 6
10 12 -3 7 7 26 21 44 15 17 25 36 23 43 -3 7 -7 8 -10 3z"/>
<path d="M4640 6114 c5 -22 11 -50 14 -64 3 -14 3 -1 1 29 -3 30 -9 59 -14 64
-6 6 -6 -5 -1 -29z"/>
<path d="M6569 6062 c64 -125 101 -174 144 -191 20 -7 40 -11 43 -8 8 8 -34
80 -52 90 -8 5 -12 12 -9 17 7 11 -57 114 -77 126 -8 4 -7 0 3 -12 29 -35 33
-49 6 -25 -15 14 -27 30 -27 36 0 6 -16 19 -35 28 l-35 17 39 -78z"/>
<path d="M1610 6120 c0 -5 7 -10 15 -10 8 0 15 5 15 10 0 6 -7 10 -15 10 -8 0
-15 -4 -15 -10z"/>
<path d="M5006 6095 c8 -37 14 -45 14 -19 0 10 -5 26 -10 34 -8 11 -9 7 -4
-15z"/>
<path d="M5386 5969 c20 -74 40 -138 46 -144 7 -7 9 -4 5 10 -47 171 -71 252
-78 259 -4 5 8 -51 27 -125z"/>
<path d="M1170 6069 c-7 -12 -26 -33 -42 -47 -20 -17 -27 -30 -23 -43 4 -13 1
-19 -9 -19 -9 0 -16 -6 -16 -12 0 -9 -3 -9 -9 1 -7 11 -13 6 -27 -20 -16 -33
-16 -33 1 -19 16 14 17 13 11 -8 -6 -17 -4 -21 8 -16 9 3 16 12 16 20 0 8 6
14 13 14 14 0 103 158 94 166 -3 3 -11 -4 -17 -17z"/>
<path d="M6706 6043 c40 -101 103 -193 153 -221 23 -13 41 -21 41 -17 0 3 -13
32 -29 63 -37 72 -107 162 -126 162 -9 0 -20 11 -25 25 -5 14 -14 25 -19 25
-6 0 -3 -17 5 -37z m113 -103 c13 -17 21 -33 18 -36 -3 -3 -24 23 -47 58 -39
59 -26 49 29 -22z"/>
<path d="M5020 6044 c0 -21 33 -184 37 -180 5 5 -27 186 -33 186 -2 0 -4 -3
-4 -6z"/>
<path d="M5681 6034 c-1 -15 67 -245 75 -253 3 -3 3 10 -1 29 -11 49 -73 237
-74 224z"/>
<path d="M4662 6000 c0 -14 2 -19 5 -12 2 6 2 18 0 25 -3 6 -5 1 -5 -13z"/>
<path d="M6859 5932 c28 -56 61 -102 110 -158 44 -50 58 -52 16 -2 -14 16 -23
34 -19 39 3 5 0 8 -7 7 -7 -2 -31 31 -55 72 -44 78 -81 112 -45 42z"/>
<path d="M985 5844 c-9 -15 -12 -23 -6 -20 11 7 35 46 28 46 -3 0 -12 -12 -22
-26z"/>
<path d="M3516 5853 c-2 -10 -8 -79 -11 -154 -6 -114 -5 -137 8 -142 8 -3 91
-6 186 -7 l171 -1 0 161 0 160 -174 0 c-158 0 -175 -2 -180 -17z"/>
<path d="M3906 5849 c-2 -8 -7 -79 -9 -159 l-5 -145 189 0 189 0 0 153 0 152
-82 0 c-46 0 -127 3 -180 7 -79 5 -98 3 -102 -8z"/>
<path d="M6673 5829 c92 -225 90 -220 121 -233 17 -7 43 -16 58 -19 l27 -7
-33 77 c-65 153 -81 177 -122 192 -22 8 -45 16 -52 19 -11 4 -11 -2 1 -29z"/>
<path d="M2850 5830 c-56 -5 -36 -7 77 -6 84 1 153 4 153 9 0 8 -119 7 -230
-3z"/>
<path d="M3092 5820 c0 -14 2 -19 5 -12 2 6 2 18 0 25 -3 6 -5 1 -5 -13z"/>
<path d="M6810 5805 c0 -7 102 -229 111 -240 10 -13 79 -39 85 -32 7 6 -61
140 -97 193 -23 34 -99 94 -99 79z"/>
<path d="M4682 5780 c0 -14 2 -19 5 -12 2 6 2 18 0 25 -3 6 -5 1 -5 -13z"/>
<path d="M3082 5765 c0 -16 2 -22 5 -12 2 9 2 23 0 30 -3 6 -5 -1 -5 -18z"/>
<path d="M6956 5728 c16 -55 88 -204 102 -215 27 -22 32 -15 18 25 -24 66 -39
92 -49 85 -6 -4 -8 0 -4 9 3 9 -9 37 -29 67 -37 55 -49 64 -38 29z"/>
<path d="M1001 5739 c-1 -4 -8 -23 -16 -43 -8 -20 -13 -36 -10 -36 9 0 36 62
31 73 -2 7 -5 9 -5 6z"/>
<path d="M999 5658 l-43 -83 37 39 c20 21 37 43 37 48 0 5 7 17 16 26 10 10
12 18 6 20 -6 2 -8 10 -5 18 3 8 3 14 0 14 -3 0 -24 -37 -48 -82z"/>
<path d="M913 5703 c-23 -32 -51 -85 -88 -163 -21 -46 -22 -50 -5 -28 11 14
30 37 41 50 l20 23 -6 -22 c-8 -27 3 -30 21 -5 20 26 17 50 -8 54 -21 3 -21 3
4 33 30 36 51 75 45 81 -3 3 -14 -7 -24 -23z"/>
<path d="M3072 5695 c0 -16 2 -22 5 -12 2 9 2 23 0 30 -3 6 -5 -1 -5 -18z"/>
<path d="M3062 5620 c0 -19 2 -27 5 -17 2 9 2 25 0 35 -3 9 -5 1 -5 -18z"/>
<path d="M1010 5610 c0 -5 5 -10 10 -10 6 0 10 5 10 10 0 6 -4 10 -10 10 -5 0
-10 -4 -10 -10z"/>
<path d="M968 5568 c-19 -6 -39 -30 -62 -71 -38 -70 -90 -207 -81 -216 13 -12
60 26 66 54 6 28 47 122 90 207 11 21 18 38 17 37 -2 0 -15 -5 -30 -11z"/>
<path d="M6770 5572 c0 -4 20 -68 43 -141 l43 -135 53 -13 c29 -8 55 -12 57
-10 2 2 -5 30 -15 63 -11 32 -26 84 -35 114 -8 30 -21 63 -28 72 -14 18 -118
63 -118 50z"/>
<path d="M2873 5553 c9 -2 25 -2 35 0 9 3 1 5 -18 5 -19 0 -27 -2 -17 -5z"/>
<path d="M3673 5512 l-183 -2 2 -48 1 -47 4 43 4 42 132 -2 132 -2 -120 -6
c-66 -3 -112 -7 -102 -8 24 -3 23 -42 -2 -42 -18 0 -20 -9 -23 -97 -2 -54 -2
-104 0 -110 5 -16 162 -18 162 -3 0 6 9 10 20 10 13 0 20 -7 20 -20 0 -18 -8
-20 -127 -23 -103 -2 -90 -3 65 -5 177 -2 192 -1 191 16 0 10 -3 12 -6 5 -2
-8 -22 -13 -44 -13 -32 0 -39 3 -39 20 0 15 7 20 26 20 26 0 26 0 19 60 -7 56
-6 60 14 60 17 0 21 -6 21 -32 1 -27 2 -30 11 -16 5 10 8 59 7 110 l-3 93
-182 -3z m174 -59 c-3 -10 -5 -2 -5 17 0 19 2 27 5 18 2 -10 2 -26 0 -35z"/>
<path d="M6967 5392 l44 -127 46 -20 c26 -11 50 -21 54 -23 8 -3 -62 202 -80
235 -11 21 -77 63 -99 63 -4 0 11 -57 35 -128z"/>
<path d="M1006 5485 c-9 -26 -7 -32 5 -12 6 10 9 21 6 23 -2 3 -7 -2 -11 -11z"/>
<path d="M4305 5458 c-4 -24 -5 -97 -3 -163 l3 -120 194 -3 194 -2 -5 155 c-3
85 -8 158 -12 163 -4 4 -88 8 -186 10 l-179 3 -6 -43z"/>
<path d="M811 5436 c-41 -54 -92 -153 -90 -177 1 -8 5 -3 9 11 8 24 8 24 9 3
3 -57 49 -2 91 107 19 47 37 90 42 96 4 6 2 11 -7 11 -8 0 -33 -23 -54 -51z
m-24 -118 c-3 -7 -5 -2 -5 12 0 14 2 19 5 13 2 -7 2 -19 0 -25z"/>
<path d="M7060 5457 c0 -2 11 -35 24 -73 41 -120 66 -171 91 -182 23 -11 24
-10 18 21 -8 48 -81 210 -100 225 -16 11 -33 16 -33 9z"/>
<path d="M2682 5415 c0 -16 2 -22 5 -12 2 9 2 23 0 30 -3 6 -5 -1 -5 -18z"/>
<path d="M7150 5405 c0 -8 4 -15 10 -15 5 0 7 7 4 15 -4 8 -8 15 -10 15 -2 0
-4 -7 -4 -15z"/>
<path d="M3483 5345 c0 -33 2 -45 4 -27 2 18 2 45 0 60 -2 15 -4 0 -4 -33z"/>
<path d="M5801 5384 c0 -11 3 -14 6 -6 3 7 2 16 -1 19 -3 4 -6 -2 -5 -13z"/>
<path d="M728 5350 c-9 -22 -15 -40 -13 -40 8 0 36 61 33 70 -2 5 -11 -9 -20
-30z"/>
<path d="M2673 5345 c0 -22 2 -30 4 -17 2 12 2 30 0 40 -3 9 -5 -1 -4 -23z"/>
<path d="M7175 5346 c8 -18 22 -63 31 -100 10 -42 23 -70 35 -76 17 -10 17 -8
2 42 -15 52 -69 168 -78 168 -2 0 2 -15 10 -34z"/>
<path d="M3502 5340 c0 -14 2 -19 5 -12 2 6 2 18 0 25 -3 6 -5 1 -5 -13z"/>
<path d="M5810 5344 c0 -29 39 -246 45 -252 8 -9 6 9 -16 140 -19 117 -29 154
-29 112z"/>
<path d="M6791 5324 c0 -11 3 -14 6 -6 3 7 2 16 -1 19 -3 4 -6 -2 -5 -13z"/>
<path d="M696 5285 c-9 -26 -7 -32 5 -12 6 10 9 21 6 23 -2 3 -7 -2 -11 -11z"/>
<path d="M2662 5275 c0 -16 2 -22 5 -12 2 9 2 23 0 30 -3 6 -5 -1 -5 -18z"/>
<path d="M6665 5257 c4 -23 18 -90 32 -150 27 -119 19 -111 123 -122 l56 -6
-35 141 -34 140 -41 11 c-23 7 -56 15 -74 19 l-33 8 6 -41z"/>
<path d="M853 5251 c-17 -16 -29 -32 -26 -35 4 -3 0 -6 -9 -6 -20 0 -44 -55
-73 -169 l-23 -93 21 6 c12 3 25 6 30 6 4 0 7 6 7 12 0 26 36 98 46 94 7 -3
14 6 17 20 2 13 0 24 -4 24 -5 0 -6 7 -3 15 4 8 10 12 15 9 6 -3 7 5 3 22 -5
21 -4 25 6 19 10 -6 12 -4 7 8 -3 10 -3 17 2 17 5 0 12 11 15 24 3 13 9 31 12
40 9 24 -7 19 -43 -13z"/>
<path d="M3841 5264 c0 -11 3 -14 6 -6 3 7 2 16 -1 19 -3 4 -6 -2 -5 -13z"/>
<path d="M815 5250 c-3 -6 1 -7 9 -4 18 7 21 14 7 14 -6 0 -13 -4 -16 -10z"/>
<path d="M6871 5178 c10 -46 24 -109 30 -141 13 -65 19 -69 102 -81 30 -5 47
-4 47 3 0 13 -55 216 -68 250 -6 18 -21 28 -58 37 -76 20 -74 23 -53 -68z"/>
<path d="M690 5204 c0 -14 3 -14 15 -4 8 7 15 14 15 16 0 2 -7 4 -15 4 -8 0
-15 -7 -15 -16z"/>
<path d="M727 5181 c-20 -22 -41 -59 -48 -83 -17 -65 -37 -162 -33 -167 2 -2
14 -1 27 3 21 5 28 21 60 142 21 75 36 139 34 141 -2 2 -20 -14 -40 -36z m-20
-143 c-3 -8 -6 -5 -6 6 -1 11 2 17 5 13 3 -3 4 -12 1 -19z"/>
<path d="M7026 5173 c8 -27 24 -85 35 -131 11 -46 22 -88 25 -95 4 -11 103
-41 111 -33 2 1 -15 63 -38 137 l-41 135 -48 17 c-26 9 -50 17 -53 17 -3 0 1
-21 9 -47z"/>
<path d="M901 5164 c0 -11 3 -14 6 -6 3 7 2 16 -1 19 -3 4 -6 -2 -5 -13z"/>
<path d="M7174 5103 c13 -38 29 -98 36 -135 12 -61 16 -68 43 -78 17 -5 33
-10 38 -10 8 0 -34 161 -57 220 -12 30 -56 70 -77 70 -3 0 4 -30 17 -67z"/>
<path d="M3507 5143 c-13 -3 -15 -11 -10 -31 3 -15 10 -28 15 -30 4 -2 8 -15
8 -28 0 -14 -4 -22 -10 -19 -6 4 -10 -23 -10 -74 0 -47 4 -81 10 -81 6 0 10
-9 10 -20 0 -17 7 -20 40 -20 29 0 40 -4 40 -15 0 -13 -13 -15 -70 -14 -54 1
-70 5 -70 16 0 9 6 13 15 9 12 -4 15 4 15 39 0 25 -4 45 -10 45 -5 0 -9 19 -9
43 l2 42 7 -40 c6 -34 7 -30 8 30 0 39 -3 88 -7 110 -7 36 -8 32 -14 -45 -4
-47 -8 -124 -11 -172 l-4 -86 152 -7 c83 -4 171 -5 196 -3 25 3 5 5 -47 6 -86
2 -93 4 -93 22 0 13 7 20 20 20 11 0 20 5 20 10 0 6 14 10 30 10 17 0 30 5 30
10 0 6 9 10 20 10 14 0 20 -7 20 -22 1 -21 2 -21 11 -5 6 10 9 47 7 83 -2 35
0 64 5 64 4 0 7 -37 8 -82 1 -123 7 -83 12 85 l5 147 -162 -1 c-88 -1 -169 -3
-179 -6z m126 -10 c-7 -2 -19 -2 -25 0 -7 3 -2 5 12 5 14 0 19 -2 13 -5z m120
0 c-7 -2 -19 -2 -25 0 -7 3 -2 5 12 5 14 0 19 -2 13 -5z m54 -205 c-3 -7 -5
-2 -5 12 0 14 2 19 5 13 2 -7 2 -19 0 -25z"/>
<path d="M4310 4956 l0 -186 198 0 197 0 -3 180 -3 180 -127 0 c-70 0 -157 3
-194 7 l-68 6 0 -187z"/>
<path d="M6162 5120 c0 -14 2 -19 5 -12 2 6 2 18 0 25 -3 6 -5 1 -5 -13z"/>
<path d="M650 5109 c0 -5 -4 -8 -10 -4 -8 5 -60 -143 -60 -173 0 -16 29 -15
35 1 19 50 51 187 44 187 -5 0 -9 -5 -9 -11z"/>
<path d="M7250 5114 c0 -5 9 -37 19 -70 11 -32 27 -84 35 -115 11 -38 24 -62
40 -73 25 -16 25 -16 16 12 -5 15 -21 66 -36 114 -23 75 -73 163 -74 132z"/>
<path d="M5132 5045 c0 -22 5 -94 12 -160 8 -66 14 -100 14 -75 0 25 -5 97
-12 160 -8 63 -14 97 -14 75z"/>
<path d="M2272 5000 c0 -14 2 -19 5 -12 2 6 2 18 0 25 -3 6 -5 1 -5 -13z"/>
<path d="M7341 5000 c0 -8 4 -24 9 -35 5 -13 9 -14 9 -5 0 8 -4 24 -9 35 -5
13 -9 14 -9 5z"/>
<path d="M6646 4958 c5 -16 -1 -18 -59 -18 -42 0 -68 -5 -76 -14 -8 -10 -8
-46 1 -139 l12 -126 65 -6 c36 -3 82 -7 102 -9 l36 -4 -8 57 c-21 143 -43 264
-47 253 -3 -9 -8 -8 -18 5 -13 17 -14 17 -8 1z"/>
<path d="M2255 4905 c-3 -31 -5 -59 -2 -61 3 -3 8 20 12 51 3 31 5 59 2 61 -3
3 -8 -20 -12 -51z"/>
<path d="M6720 4941 c1 -26 48 -293 53 -298 6 -5 156 -20 161 -16 5 6 -44 297
-52 305 -4 4 -42 11 -85 16 -67 7 -77 6 -77 -7z"/>
<path d="M800 4943 c0 -6 -20 -16 -45 -23 -52 -14 -49 -8 -79 -177 l-23 -125
36 6 c20 3 41 6 47 6 7 0 15 21 19 48 4 26 18 96 31 156 13 60 22 112 19 114
-3 3 -5 1 -5 -5z"/>
<path d="M909 4945 c-3 -2 -19 -5 -36 -7 -35 -2 -31 10 -64 -167 -25 -139 -26
-133 19 -126 82 13 76 8 90 92 8 51 9 79 2 81 -5 2 -10 26 -10 52 0 38 4 52
19 60 14 7 21 6 24 -3 3 -7 6 -5 6 6 1 11 -6 17 -22 17 -13 0 -26 -2 -28 -5z"/>
<path d="M7361 4930 c0 -8 4 -24 9 -35 5 -13 9 -14 9 -5 0 8 -4 24 -9 35 -5
13 -9 14 -9 5z"/>
<path d="M6923 4910 c3 -13 16 -83 28 -156 l22 -132 64 -7 c36 -4 66 -5 68 -3
4 4 -41 261 -49 284 -2 6 -27 14 -55 18 -28 4 -59 10 -68 13 -13 5 -15 2 -10
-17z"/>
<path d="M7084 4894 c3 -7 17 -73 31 -146 14 -73 29 -136 33 -139 4 -4 29 -9
55 -11 l48 -3 -6 55 c-4 30 -14 93 -24 139 l-16 84 -63 17 c-50 14 -62 15 -58
4z"/>
<path d="M645 4888 c-11 -6 -21 -12 -23 -13 -5 -4 -72 -250 -72 -266 0 -27 79
-4 85 25 11 49 45 242 45 254 0 15 -9 15 -35 0z"/>
<path d="M586 4865 c-9 -26 -7 -32 5 -12 6 10 9 21 6 23 -2 3 -7 -2 -11 -11z"/>
<path d="M7382 4850 c0 -14 2 -19 5 -12 2 6 2 18 0 25 -3 6 -5 1 -5 -13z"/>
<path d="M7230 4852 c0 -17 48 -253 53 -258 8 -8 67 -23 67 -16 0 3 -10 61
-21 128 -21 121 -22 122 -56 138 -38 18 -43 19 -43 8z"/>
<path d="M571 4814 c0 -11 3 -14 6 -6 3 7 2 16 -1 19 -3 4 -6 -2 -5 -13z"/>
<path d="M3528 4823 c6 -2 18 -2 25 0 6 3 1 5 -13 5 -14 0 -19 -2 -12 -5z"/>
<path d="M7330 4818 c0 -18 18 -131 31 -194 7 -39 16 -54 35 -62 22 -11 24
-10 20 11 -3 12 -10 49 -16 82 -22 123 -32 155 -51 166 -14 7 -19 6 -19 -3z"/>
<path d="M2241 4804 c0 -11 3 -14 6 -6 3 7 2 16 -1 19 -3 4 -6 -2 -5 -13z"/>
<path d="M550 4738 c-12 -43 -15 -47 -20 -27 -5 20 -8 16 -13 -21 -4 -25 -10
-60 -13 -77 -5 -26 -3 -33 9 -33 15 0 31 53 52 173 10 54 1 45 -15 -15z m-23
-80 c-3 -8 -6 -5 -6 6 -1 11 2 17 5 13 3 -3 4 -12 1 -19z"/>
<path d="M7403 4760 c3 -14 13 -69 22 -122 10 -54 22 -98 27 -98 5 0 7 8 4 18
-3 9 -12 60 -21 112 -9 52 -21 100 -27 105 -7 7 -9 2 -5 -15z"/>
<path d="M5158 4753 c6 -2 18 -2 25 0 6 3 1 5 -13 5 -14 0 -19 -2 -12 -5z"/>
<path d="M3887 4743 c-4 -3 -7 -86 -7 -183 l0 -177 83 -6 c45 -4 135 -7 200
-7 l117 0 0 190 0 190 -193 0 c-107 0 -197 -3 -200 -7z"/>
<path d="M5248 4743 c23 -2 59 -2 80 0 20 2 1 4 -43 4 -44 0 -61 -2 -37 -4z"/>
<path d="M4309 4646 c-1 -50 -2 -134 -2 -186 l0 -95 202 -3 203 -2 -4 179 c-2
99 -5 181 -8 184 -3 2 -92 7 -197 10 l-193 5 -1 -92z"/>
<path d="M4730 4537 c0 -117 4 -187 10 -187 9 0 3 358 -6 369 -2 2 -4 -80 -4
-182z"/>
<path d="M5150 4517 l0 -187 181 0 182 0 -5 175 c-3 97 -7 178 -10 180 -2 2
-81 7 -176 11 l-172 7 0 -186z"/>
<path d="M1068 4673 c7 -3 16 -2 19 1 4 3 -2 6 -13 5 -11 0 -14 -3 -6 -6z"/>
<path d="M6341 4676 c2 -2 36 -6 74 -9 41 -3 60 -2 45 3 -25 8 -127 13 -119 6z"/>
<path d="M950 4662 c0 -4 16 -6 35 -4 19 2 35 6 35 8 0 2 -16 4 -35 4 -19 0
-35 -4 -35 -8z"/>
<path d="M6234 4567 c3 -39 8 -115 12 -168 l6 -97 37 -6 c20 -3 78 -6 128 -6
l93 0 -5 28 c-2 15 -10 89 -16 166 -7 77 -18 139 -23 141 -6 2 -62 6 -125 9
l-113 6 6 -73z"/>
<path d="M1022 4620 c-34 -4 -65 -10 -69 -13 -5 -6 -41 -247 -43 -287 0 -13
12 -15 73 -12 39 2 74 6 76 8 4 3 39 268 41 302 0 6 -3 11 -7 11 -5 -1 -36 -5
-71 -9z"/>
<path d="M1146 4610 c-9 -37 -36 -247 -36 -277 l0 -26 80 5 c44 3 82 7 85 9 2
3 9 37 15 77 12 83 4 162 -16 162 -8 0 -14 10 -15 23 l-1 22 -6 -23 c-9 -29
-26 -30 -30 -2 -4 22 -18 27 -24 8 -6 -16 -27 -1 -38 26 -8 21 -8 20 -14 -4z
m11 -47 c-3 -10 -5 -4 -5 12 0 17 2 24 5 18 2 -7 2 -21 0 -30z"/>
<path d="M845 4606 l-60 -11 -17 -115 c-9 -63 -17 -131 -17 -150 l-1 -35 60 3
c33 2 60 5 60 5 5 28 39 311 37 312 -1 1 -29 -3 -62 -9z"/>
<path d="M6521 4583 c0 -21 6 -96 12 -168 l12 -130 109 -3 109 -3 -6 38 c-3
21 -11 95 -18 164 l-12 127 -51 6 c-28 3 -75 6 -103 6 l-53 0 1 -37z"/>
<path d="M6766 4567 c3 -23 11 -98 17 -167 l12 -125 88 -3 c102 -3 94 -25 69
182 l-17 140 -30 2 c-16 2 -56 5 -87 8 l-57 4 5 -41z"/>
<path d="M1232 4580 c0 -14 2 -19 5 -12 2 6 2 18 0 25 -3 6 -5 1 -5 -13z"/>
<path d="M6182 4580 c0 -14 2 -19 5 -12 2 6 2 18 0 25 -3 6 -5 1 -5 -13z"/>
<path d="M684 4579 l-41 -10 -12 -97 c-7 -53 -14 -117 -17 -142 l-6 -45 51 3
c31 3 51 9 51 16 0 6 7 66 15 131 17 137 18 155 8 154 -5 -1 -26 -5 -49 -10z"/>
<path d="M6975 4543 c4 -26 12 -100 18 -163 l12 -115 74 -3 73 -4 -6 29 c-3
15 -11 83 -17 150 -6 66 -14 125 -18 131 -3 5 -37 13 -74 17 l-68 7 6 -49z"/>
<path d="M578 4563 c-16 -2 -28 -7 -28 -10 0 -26 -32 -259 -37 -263 -5 -5 -1
59 13 205 4 33 3 57 0 54 -4 -4 -11 -49 -16 -100 -6 -52 -13 -114 -16 -138
l-7 -44 49 8 c27 4 50 8 51 9 1 1 10 65 21 144 12 96 15 142 8 141 -6 -1 -23
-4 -38 -6z"/>
<path d="M7144 4518 c3 -29 11 -99 17 -155 l12 -101 59 -4 60 -3 -6 40 c-3 22
-11 90 -17 151 l-12 112 -45 6 c-77 10 -75 12 -68 -46z"/>
<path d="M7280 4536 c0 -11 7 -79 15 -151 8 -71 15 -131 15 -132 0 -2 18 -3
41 -3 l41 0 -6 48 c-3 26 -11 90 -17 144 l-11 96 -39 10 c-36 9 -39 8 -39 -12z"/>
<path d="M481 4480 c-16 -76 -26 -220 -14 -220 8 0 34 259 27 268 -1 2 -7 -20
-13 -48z"/>
<path d="M7380 4502 c0 -28 15 -161 26 -229 4 -24 10 -33 24 -33 24 0 24 3 9
159 -6 64 -17 119 -23 123 -23 15 -36 8 -36 -20z"/>
<path d="M7454 4418 c11 -139 18 -178 30 -178 9 0 8 26 -1 103 -6 56 -12 114
-12 130 -1 15 -6 27 -12 27 -8 0 -10 -24 -5 -82z"/>
<path d="M6189 4439 c-1 -24 -4 -34 -6 -21 -3 16 -9 22 -20 18 -8 -3 -21 -6
-29 -6 -8 0 -14 -7 -14 -15 0 -8 -9 -15 -20 -15 -13 0 -20 -7 -20 -20 0 -13 7
-20 20 -20 13 0 20 -7 20 -19 0 -16 -8 -21 -42 -24 -24 -2 -4 -4 44 -5 l87 -2
-6 83 c-7 93 -12 111 -14 46z m-22 -111 c-3 -7 -5 -2 -5 12 0 14 2 19 5 13 2
-7 2 -19 0 -25z"/>
<path d="M3437 4344 c-2 -5 -6 -92 -8 -194 l-4 -185 201 -3 202 -2 7 185 c4
102 6 187 4 189 -9 9 -397 18 -402 10z"/>
<path d="M3852 4260 c-1 -47 -4 -137 -7 -200 l-4 -115 10 85 c5 47 8 137 6
200 -2 101 -3 105 -5 30z"/>
<path d="M3876 4279 c-3 -34 -6 -119 -6 -189 l0 -127 202 -6 c111 -4 202 -6
203 -4 1 1 5 89 9 195 l6 192 -204 0 -203 0 -7 -61z"/>
<path d="M4300 3935 c0 -257 -4 -404 -11 -417 -7 -14 -7 -23 2 -34 6 -8 13
-31 15 -51 4 -43 14 -57 14 -20 0 21 5 27 21 27 11 0 17 -4 14 -10 -3 -5 3
-10 14 -10 26 0 36 -17 14 -23 -12 -3 -8 -5 9 -6 14 0 28 3 30 8 2 6 22 5 51
-1 39 -10 61 -8 125 7 42 10 85 18 95 17 12 0 17 7 17 28 l0 30 -202 2 c-195
3 -203 4 -203 23 0 19 8 20 207 23 l207 2 4 -22 c3 -21 4 -22 12 -4 6 13 3 21
-8 28 -15 8 -17 31 -17 182 0 149 -2 175 -16 180 -9 3 -99 6 -200 6 -177 0
-184 1 -184 20 0 19 7 20 205 20 l205 0 0 190 0 190 -149 0 c-81 0 -176 3
-209 6 l-61 7 -1 -398z m293 -392 c-29 -2 -77 -2 -105 0 -29 2 -6 3 52 3 58 0
81 -1 53 -3z m-240 -80 c-7 -2 -19 -2 -25 0 -7 3 -2 5 12 5 14 0 19 -2 13 -5z
m194 -59 c-3 -3 -12 -4 -19 -1 -8 3 -5 6 6 6 11 1 17 -2 13 -5z"/>
<path d="M4747 4228 c-4 -46 -7 -131 -7 -190 l0 -108 199 0 198 0 2 130 c1 71
-1 157 -5 190 l-7 60 -187 0 -187 0 -6 -82z"/>
<path d="M1847 4293 c-4 -3 -7 -22 -8 -42 0 -20 -4 -45 -9 -56 -8 -18 -9 -18
-10 5 -1 14 -4 20 -6 14 -4 -8 -15 -8 -42 2 -20 7 -45 13 -54 14 -10 0 -18 5
-18 10 0 6 -24 10 -54 10 l-54 0 -8 -77 c-4 -43 -7 -114 -8 -158 l-1 -80 132
-2 132 -1 5 31 c6 35 16 337 12 337 -2 0 -6 -3 -9 -7z"/>
<path d="M2176 4269 c-3 -17 -5 -55 -5 -83 2 -42 3 -38 9 29 9 85 7 107 -4 54z"/>
<path d="M5157 4221 c-4 -42 -10 -220 -13 -396 -6 -290 -5 -321 9 -334 15 -11
17 -11 17 2 0 8 -4 17 -9 19 -6 2 72 4 172 6 100 2 183 4 184 6 1 1 5 82 9
179 l7 177 -182 0 c-154 0 -183 2 -188 15 -3 9 -4 18 -1 20 2 2 84 5 183 7
l180 3 -4 180 c-2 99 -4 181 -5 181 0 1 -80 4 -177 6 l-176 4 -6 -75z"/>
<path d="M5542 4049 c3 -133 3 -317 0 -410 l-5 -167 -180 -2 c-100 0 -183 -3
-186 -5 -2 -3 162 -4 365 -3 203 2 294 4 202 6 -157 2 -168 4 -168 22 0 17 10
19 149 22 82 2 152 5 154 8 3 3 7 84 9 180 l3 175 -161 3 -162 2 -4 28 c-2 15
-3 107 -3 204 0 99 -4 178 -9 178 -5 0 -7 -102 -4 -241z"/>
<path d="M1189 4272 l-86 -3 -7 -127 c-4 -70 -10 -144 -13 -164 l-6 -38 97 0
96 0 1 43 c0 23 4 96 9 162 4 66 5 122 1 125 -3 3 -45 4 -92 2z"/>
<path d="M1326 4272 c-2 -4 -7 -80 -11 -169 l-8 -162 111 -3 111 -3 5 30 c3
17 8 84 11 150 3 66 8 130 11 143 4 22 3 22 -110 22 -63 0 -117 -3 -120 -8z"/>
<path d="M6313 4273 c26 -2 68 -2 95 0 26 2 4 3 -48 3 -52 0 -74 -1 -47 -3z"/>
<path d="M799 4263 c-56 -5 -54 -1 -65 -190 l-7 -123 62 0 c42 0 61 4 61 13 0
19 19 239 24 275 4 26 1 32 -12 30 -9 -1 -38 -3 -63 -5z"/>
<path d="M929 4263 c-15 -4 -28 -88 -42 -288 l-2 -30 77 -3 76 -3 7 63 c3 35
9 109 13 166 l8 102 -61 -1 c-33 -1 -67 -3 -76 -6z"/>
<path d="M649 4253 c-33 -4 -37 -7 -43 -41 -3 -20 -6 -88 -6 -149 l0 -113 44
0 45 0 5 43 c3 23 8 93 11 155 5 89 3 112 -7 110 -7 -1 -29 -3 -49 -5z"/>
<path d="M6260 4181 c0 -42 3 -120 7 -173 l6 -98 119 0 118 0 0 158 c0 86 -4
162 -8 168 -4 7 -53 13 -124 16 l-118 4 0 -75z"/>
<path d="M6544 4083 c4 -92 8 -169 10 -171 9 -8 118 -14 160 -8 l46 7 0 123
c0 68 -3 144 -6 170 l-7 46 -105 0 -105 0 7 -167z"/>
<path d="M6790 4130 c0 -63 3 -139 6 -167 l7 -53 88 0 89 0 0 119 c0 65 -3
139 -6 164 l-7 46 -88 3 -89 3 0 -115z"/>
<path d="M513 4227 c-2 -4 -6 -70 -8 -145 -2 -85 -1 -122 4 -97 l8 40 2 -37
c1 -35 3 -38 31 -38 l30 0 0 99 c0 54 3 119 6 145 l7 47 -37 -3 c-21 -1 -40
-6 -43 -11z m14 -129 c-2 -13 -4 -3 -4 22 0 25 2 35 4 23 2 -13 2 -33 0 -45z"/>
<path d="M7000 4188 c0 -29 3 -104 7 -165 l6 -113 75 0 75 0 -7 157 c-3 86 -7
158 -9 158 -1 1 -35 5 -74 9 l-73 6 0 -52z"/>
<path d="M464 4222 c-7 -4 -13 -60 -17 -139 l-6 -133 25 0 c24 0 24 1 24 103
0 56 3 119 6 140 7 37 -5 48 -32 29z"/>
<path d="M7173 4170 c4 -35 7 -107 7 -162 l0 -99 58 3 57 3 -3 150 c-1 82 -4
150 -5 152 -2 1 -29 5 -62 9 l-58 7 6 -63z"/>
<path d="M7310 4063 l0 -153 40 0 40 0 0 149 0 149 -40 4 -40 4 0 -153z"/>
<path d="M7410 4059 c0 -150 0 -150 23 -147 24 3 23 -7 19 198 -2 93 -3 100
-22 100 -19 0 -20 -7 -20 -151z"/>
<path d="M7470 4058 c0 -123 2 -145 15 -145 13 0 15 20 13 140 -2 101 -6 142
-15 145 -10 3 -13 -30 -13 -140z"/>
<path d="M5904 4070 c0 -69 1 -97 3 -62 2 34 2 90 0 125 -2 34 -3 6 -3 -63z"/>
<path d="M1867 4046 c-4 -54 -5 -101 -3 -105 2 -3 70 -5 150 -3 l146 3 0 57 0
58 -62 18 c-50 15 -149 32 -210 36 -3 0 -8 8 -10 18 -2 9 -7 -27 -11 -82z"/>
<path d="M2162 4100 c0 -19 2 -27 5 -17 2 9 2 25 0 35 -3 9 -5 1 -5 -18z"/>
<path d="M2181 4084 c0 -11 3 -14 6 -6 3 7 2 16 -1 19 -3 4 -6 -2 -5 -13z"/>
<path d="M2200 3970 l0 -30 103 2 c56 1 84 3 63 5 -21 3 -45 11 -53 19 -8 8
-30 14 -48 14 -19 0 -37 5 -40 10 -12 20 -25 9 -25 -20z"/>
<path d="M2453 3943 c15 -2 39 -2 55 0 15 2 2 4 -28 4 -30 0 -43 -2 -27 -4z"/>
<path d="M1831 3913 c-1 -10 -34 -13 -131 -13 l-130 0 2 -172 3 -173 117 -3
c100 -2 117 -5 121 -20 3 -9 5 64 6 164 1 117 5 184 12 191 6 6 9 17 6 25 -4
9 -6 10 -6 1z"/>
<path d="M3840 3735 c0 -165 -2 -185 -17 -194 -10 -6 -13 -11 -6 -11 6 0 15
-9 18 -20 4 -14 16 -20 38 -21 18 -1 24 -3 14 -6 -11 -3 -16 -10 -13 -20 3 -8
6 -17 6 -19 0 -2 11 -4 25 -4 14 0 25 5 25 10 0 6 7 10 15 10 8 0 15 -4 15
-10 0 -6 27 -10 60 -10 33 0 60 -4 60 -8 0 -10 176 -10 186 1 4 4 -1 7 -12 7
-18 1 -18 1 -1 11 9 5 17 18 17 28 0 16 -15 19 -158 25 -87 4 -177 4 -200 0
-39 -6 -42 -5 -42 16 l0 22 210 -7 210 -7 0 196 0 196 -225 0 -225 0 0 -185z
m16 -222 c-11 -11 -19 6 -11 24 8 17 8 17 12 0 3 -10 2 -21 -1 -24z m91 -29
c-3 -3 -12 -4 -19 -1 -8 3 -5 6 6 6 11 1 17 -2 13 -5z"/>
<path d="M452 3788 l2 -123 6 120 c3 66 7 100 8 75 8 -163 13 -215 22 -224 7
-7 10 37 10 132 l0 142 -25 0 -25 0 2 -122z"/>
<path d="M520 3770 l0 -140 30 0 30 0 0 140 0 140 -30 0 -30 0 0 -140z"/>
<path d="M600 3765 l0 -145 50 0 50 0 0 145 0 145 -50 0 -50 0 0 -145z"/>
<path d="M730 3760 l0 -150 49 0 c27 0 56 -3 65 -6 14 -5 16 12 16 150 l0 156
-65 0 -65 0 0 -150z"/>
<path d="M897 3903 c-4 -3 -7 -73 -7 -155 l0 -150 29 7 c16 3 47 -1 72 -9 24
-9 46 -16 49 -16 3 0 7 74 9 165 l3 165 -74 0 c-41 0 -78 -3 -81 -7z"/>
<path d="M1089 3818 c0 -51 -1 -115 -1 -143 -1 -91 0 -101 15 -84 9 11 23 13
57 8 l45 -7 -47 1 c-27 1 -48 -1 -48 -4 0 -7 149 -23 155 -17 2 2 5 78 6 168
l1 165 -91 3 -91 3 -1 -93z"/>
<path d="M2013 3903 l-152 -4 -3 -174 -3 -175 148 0 147 0 0 -26 c0 -22 2 -25
15 -14 12 10 15 46 15 206 0 107 -3 193 -7 192 -5 -1 -76 -4 -160 -5z m60 -20
c-7 -2 -19 -2 -25 0 -7 3 -2 5 12 5 14 0 19 -2 13 -5z m89 -200 c2 -89 0 -155
-4 -145 -4 9 -6 94 -6 187 1 204 6 182 10 -42z m-242 -108 c0 -1 -11 -5 -25
-7 -16 -3 -25 -1 -25 7 0 8 9 10 25 7 14 -2 25 -6 25 -7z m200 -5 c0 -13 -70
-13 -90 0 -11 7 0 10 38 10 28 0 52 -4 52 -10z m-117 -7 c-7 -2 -21 -2 -30 0
-10 3 -4 5 12 5 17 0 24 -2 18 -5z"/>
<path d="M2575 3898 c-3 -7 -6 -88 -7 -179 l-3 -167 59 -6 c32 -3 117 -6 187
-6 l129 0 0 185 0 185 -180 0 c-136 0 -182 -3 -185 -12z"/>
<path d="M1310 3741 l0 -158 38 -7 c20 -3 57 -6 82 -6 25 0 57 -6 72 -14 15
-8 29 -12 32 -8 3 3 6 83 6 179 l0 173 -115 0 -115 0 0 -159z"/>
<path d="M2196 3854 c-3 -26 -6 -105 -6 -175 l0 -129 165 0 c134 0 165 -3 165
-14 0 -21 28 -28 30 -8 7 109 8 333 0 317 -7 -16 -9 -13 -9 18 l-1 37 -169 0
-168 0 -7 -46z"/>
<path d="M1834 3715 c0 -93 2 -133 3 -88 2 45 2 122 0 170 -1 48 -3 12 -3 -82z"/>
<path d="M5914 3865 c-2 -5 -5 -94 -6 -198 -2 -148 0 -187 10 -187 7 0 12 7
10 15 -2 12 21 15 136 20 77 3 141 7 142 8 1 1 5 79 9 174 l7 172 -153 3 c-95
2 -153 -1 -155 -7z"/>
<path d="M6579 3872 c-21 -2 -28 -10 -33 -35 -9 -55 -10 -307 0 -316 9 -8 189
1 198 10 3 3 9 81 12 175 l7 169 -79 0 c-43 0 -91 -1 -105 -3z"/>
<path d="M6795 3866 c-2 -6 -5 -82 -7 -169 -2 -127 -6 -160 -18 -167 -10 -7
21 -8 90 -4 57 2 106 6 107 8 2 2 6 80 10 175 l6 172 -92 -2 c-58 -1 -94 -6
-96 -13z"/>
<path d="M7006 3849 c-3 -17 -6 -94 -6 -171 l0 -140 68 7 c37 4 70 10 74 14 4
3 10 77 14 164 l7 157 -75 0 -75 0 -7 -31z"/>
<path d="M7176 3803 c-3 -42 -6 -116 -6 -165 0 -80 2 -89 18 -84 9 2 36 8 60
11 l42 7 0 138 c0 76 3 145 6 154 5 14 -3 16 -53 16 l-60 0 -7 -77z"/>
<path d="M7307 3733 c-3 -82 -3 -151 -1 -154 2 -3 20 -3 41 0 l38 6 3 148 3
147 -39 0 -39 0 -6 -147z"/>
<path d="M7407 3773 c-11 -177 -11 -185 16 -181 21 3 22 6 25 146 3 134 2 142
-16 142 -17 0 -20 -11 -25 -107z"/>
<path d="M7460 3740 c0 -118 2 -140 15 -140 11 0 15 12 15 48 0 27 3 90 6 140
7 89 6 92 -15 92 -20 0 -21 -3 -21 -140z"/>
<path d="M2960 3787 c0 -46 -3 -125 -6 -175 -4 -53 -3 -92 2 -92 5 0 10 79 12
175 2 96 1 175 -2 175 -3 0 -6 -38 -6 -83z"/>
<path d="M6245 3695 c-4 -97 -6 -177 -4 -178 2 -2 61 -1 130 1 l126 4 7 81 c3
45 6 124 6 175 l0 92 -129 0 -129 0 -7 -175z"/>
<path d="M4733 3800 c0 -25 2 -35 4 -22 2 12 2 32 0 45 -2 12 -4 2 -4 -23z"/>
<path d="M3390 3665 c0 -110 1 -97 -9 -133 -7 -22 -5 -29 5 -29 11 0 14 26 14
129 0 70 -2 128 -5 128 -3 0 -5 -43 -5 -95z"/>
<path d="M4734 3635 c0 -49 1 -71 3 -48 2 23 2 64 0 90 -2 26 -3 8 -3 -42z"/>
<path d="M461 3644 c0 -11 3 -14 6 -6 3 7 2 16 -1 19 -3 4 -6 -2 -5 -13z"/>
<path d="M470 3583 c0 -10 4 -43 8 -73 l7 -55 6 50 c5 40 6 36 4 -21 -2 -39 0
-77 5 -84 8 -12 12 12 23 130 2 19 5 -12 5 -69 1 -57 4 -102 6 -100 2 2 7 57
11 122 6 101 5 117 -8 117 -9 0 -18 -8 -20 -17 -4 -17 -5 -17 -6 0 -1 10 -9
17 -21 17 -12 0 -20 -7 -20 -17z"/>
<path d="M560 3533 c0 -41 3 -54 10 -43 13 20 13 100 0 100 -6 0 -10 -26 -10
-57z"/>
<path d="M590 3535 c0 -52 1 -55 24 -55 18 0 26 7 29 23 l4 22 2 -22 c0 -13 6
-23 11 -23 6 0 10 10 10 23 0 17 2 19 9 8 8 -12 11 -10 15 10 15 65 15 64 -46
67 l-58 3 0 -56z"/>
<path d="M748 3573 c7 -3 16 -2 19 1 4 3 -2 6 -13 5 -11 0 -14 -3 -6 -6z"/>
<path d="M828 3563 c7 -3 16 -2 19 1 4 3 -2 6 -13 5 -11 0 -14 -3 -6 -6z"/>
<path d="M7400 3553 c0 -5 -9 -68 -19 -140 -17 -130 -15 -146 15 -125 9 6 18
57 41 230 5 38 3 42 -16 42 -11 0 -21 -3 -21 -7z"/>
<path d="M7456 3538 c-10 -48 -33 -233 -30 -237 10 -11 18 16 30 101 7 51 15
108 18 126 5 36 -11 45 -18 10z"/>
<path d="M7320 3542 c-15 -7 -25 -98 -24 -217 0 -27 -5 -54 -11 -58 -5 -5 3
-6 20 -2 16 4 31 8 32 9 3 3 43 248 43 264 0 13 -35 15 -60 4z"/>
<path d="M7203 3533 c-13 -2 -23 -12 -23 -21 0 -9 -7 -75 -14 -147 -8 -71 -13
-132 -11 -133 7 -8 115 20 110 28 -3 4 -1 30 4 56 5 27 12 88 16 137 l7 87
-33 -1 c-19 -1 -44 -4 -56 -6z"/>
<path d="M7115 3525 c-5 -2 -31 -6 -56 -10 l-46 -6 -12 -151 c-6 -83 -10 -152
-9 -153 2 -1 33 2 69 8 l66 10 12 111 c6 61 14 130 18 154 5 37 3 42 -13 41
-11 0 -23 -2 -29 -4z m-8 -251 c-3 -3 -12 -4 -19 -1 -8 3 -5 6 6 6 11 1 17 -2
13 -5z m-30 -45 c-31 -6 -54 -6 -65 0 -12 8 0 10 48 10 l65 -1 -48 -9z"/>
<path d="M3083 3513 c26 -2 68 -2 95 0 26 2 4 3 -48 3 -52 0 -74 -1 -47 -3z"/>
<path d="M2263 3503 c48 -2 126 -2 175 0 48 1 8 3 -88 3 -96 0 -136 -2 -87 -3z"/>
<path d="M2653 3503 c54 -2 139 -2 190 0 51 1 7 3 -98 3 -104 0 -146 -2 -92
-3z"/>
<path d="M6393 3503 c15 -2 37 -2 50 0 12 2 0 4 -28 4 -27 0 -38 -2 -22 -4z"/>
<path d="M6863 3503 l-63 -4 0 -89 c0 -86 1 -90 23 -91 21 -1 21 -1 -3 -9 -19
-6 -9 -8 37 -9 39 -1 63 -6 66 -13 3 -7 6 -3 6 10 1 15 7 22 21 22 15 0 20 7
20 28 0 15 3 57 7 95 l6 67 -29 -2 c-16 -1 -57 -3 -91 -5z"/>
<path d="M3508 3493 c39 -2 105 -2 145 0 39 1 7 3 -73 3 -80 0 -112 -2 -72 -3z"/>
<path d="M6604 3493 c-39 -4 -42 -6 -48 -41 -7 -42 -6 -136 1 -109 5 21 2 21
87 0 65 -15 70 -15 81 1 10 13 14 14 19 4 3 -7 3 -3 0 10 -3 12 -1 22 4 22 6
0 12 27 14 60 l3 60 -60 -2 c-33 -1 -79 -3 -101 -5z"/>
<path d="M6338 3483 l-78 -4 0 -38 c0 -48 3 -49 131 -58 81 -5 99 -9 100 -22
1 -27 8 1 17 67 l9 62 -51 -2 c-28 -1 -86 -4 -128 -5z"/>
<path d="M3402 3460 c0 -14 2 -19 5 -12 2 6 2 18 0 25 -3 6 -5 1 -5 -13z"/>
<path d="M4740 3456 l0 -24 189 -2 c104 0 192 3 195 8 3 5 -7 8 -22 6 -23 -3
-23 -2 5 6 75 24 41 30 -161 30 l-206 0 0 -24z m70 -6 c22 -7 21 -8 -12 -9
-20 -1 -40 4 -43 9 -7 12 19 12 55 0z m189 -6 c8 -7 -114 -2 -139 6 -14 4 11
5 55 2 44 -2 82 -6 84 -8z"/>
<path d="M6025 3471 c-68 -4 -87 -8 -60 -11 27 -3 39 -9 37 -19 -2 -10 5 -12
32 -7 20 4 37 2 41 -4 3 -5 21 -10 38 -10 24 0 28 3 17 10 -11 7 -3 10 30 11
l45 2 -50 7 -50 7 58 -1 c37 -2 57 2 57 9 0 13 -47 14 -195 6z"/>
<path d="M6212 3420 c0 -14 2 -19 5 -12 2 6 2 18 0 25 -3 6 -5 1 -5 -13z"/>
<path d="M546 3293 c13 -88 22 -102 21 -31 -1 45 -6 69 -15 73 -10 4 -12 -5
-6 -42z"/>
<path d="M7377 3262 c-9 -2 -15 -7 -12 -11 8 -13 -26 -195 -41 -219 -8 -12
-12 -27 -9 -32 3 -5 -12 -21 -35 -36 -45 -30 -53 -50 -72 -182 -11 -77 -15
-85 -41 -99 -16 -8 -27 -17 -24 -20 3 -2 16 1 28 8 13 6 32 12 43 13 11 1 30
15 42 33 22 33 81 230 71 239 -3 3 -20 -39 -37 -95 -17 -57 -41 -113 -55 -128
l-24 -28 0 25 c0 14 8 63 19 110 17 76 22 87 59 118 23 19 39 38 36 43 -4 5 0
6 8 4 10 -4 19 26 39 127 15 73 26 133 25 134 -1 0 -10 -1 -20 -4z"/>
<path d="M7411 3234 c-5 -22 -15 -68 -21 -104 -6 -36 -14 -76 -17 -90 -3 -14
-3 -22 1 -18 9 7 57 240 51 246 -2 2 -8 -13 -14 -34z"/>
<path d="M7297 3215 c-3 -19 -3 -52 0 -72 l6 -37 18 54 c24 71 24 90 0 90 -13
0 -20 -10 -24 -35z"/>
<path d="M7240 3229 c-19 -4 -83 -16 -142 -25 -60 -9 -108 -20 -108 -24 0 -6
20 -4 132 15 21 3 28 0 31 -18 l4 -22 2 22 c1 26 36 39 73 28 18 -5 20 -4 8 4
-12 9 -10 11 13 11 15 0 27 5 27 10 0 6 -1 10 -2 9 -2 -1 -19 -5 -38 -10z"/>
<path d="M1343 3223 c15 -2 37 -2 50 0 12 2 0 4 -28 4 -27 0 -38 -2 -22 -4z"/>
<path d="M1443 3213 c15 -2 39 -2 55 0 15 2 2 4 -28 4 -30 0 -43 -2 -27 -4z"/>
<path d="M1563 3203 c9 -2 25 -2 35 0 9 3 1 5 -18 5 -19 0 -27 -2 -17 -5z"/>
<path d="M1663 3193 c15 -2 37 -2 50 0 12 2 0 4 -28 4 -27 0 -38 -2 -22 -4z"/>
<path d="M572 3170 c0 -14 2 -19 5 -12 2 6 2 18 0 25 -3 6 -5 1 -5 -13z"/>
<path d="M1788 3183 c6 -2 18 -2 25 0 6 3 1 5 -13 5 -14 0 -19 -2 -12 -5z"/>
<path d="M6880 3174 l-85 -13 80 5 c44 3 84 9 90 15 5 5 7 8 5 8 -3 -1 -43 -8
-90 -15z"/>
<path d="M1868 3173 c6 -2 18 -2 25 0 6 3 1 5 -13 5 -14 0 -19 -2 -12 -5z"/>
<path d="M1948 3163 c23 -2 59 -2 80 0 20 2 1 4 -43 4 -44 0 -61 -2 -37 -4z"/>
<path d="M2088 3153 c12 -2 32 -2 45 0 12 2 2 4 -23 4 -25 0 -35 -2 -22 -4z"/>
<path d="M6685 3150 l-50 -7 45 -1 c25 0 54 3 65 8 23 10 12 10 -60 0z"/>
<path d="M2217 3143 c18 -2 50 -2 70 0 21 2 7 4 -32 4 -38 0 -55 -2 -38 -4z"/>
<path d="M2428 3133 c17 -2 47 -2 65 0 17 2 3 4 -33 4 -36 0 -50 -2 -32 -4z"/>
<path d="M6365 3130 l-90 -7 113 0 c61 0 112 4 112 9 0 4 -10 7 -22 6 -13 -1
-63 -5 -113 -8z"/>
<path d="M6553 3133 c9 -2 23 -2 30 0 6 3 -1 5 -18 5 -16 0 -22 -2 -12 -5z"/>
<path d="M3068 3123 c17 -2 47 -2 65 0 17 2 3 4 -33 4 -36 0 -50 -2 -32 -4z"/>
<path d="M3415 3121 c3 -5 92 -9 203 -9 188 1 191 1 77 8 -182 11 -287 11
-280 1z"/>
<path d="M580 3112 c0 -4 15 -13 33 -20 l32 -12 -25 20 c-27 21 -40 25 -40 12z"/>
<path d="M6108 3113 c23 -2 59 -2 80 0 20 2 1 4 -43 4 -44 0 -61 -2 -37 -4z"/>
<path d="M3851 3106 c2 -2 97 -7 212 -11 146 -5 207 -3 207 4 0 8 -67 11 -212
11 -116 0 -209 -2 -207 -4z"/>
<path d="M5733 3103 c32 -2 81 -2 110 0 29 2 3 3 -58 3 -60 0 -84 -1 -52 -3z"/>
<path d="M7279 3046 c-12 -57 -9 -74 11 -61 8 5 9 10 2 14 -8 4 -8 20 -1 50 5
24 8 46 5 48 -2 3 -10 -21 -17 -51z"/>
<path d="M4403 3083 c59 -2 154 -2 210 0 56 1 8 3 -108 3 -115 0 -161 -2 -102
-3z"/>
<path d="M657 3069 c7 -7 15 -10 18 -7 3 3 -2 9 -12 12 -14 6 -15 5 -6 -5z"/>
<path d="M7190 2955 c-25 -13 -40 -24 -35 -24 6 0 30 11 55 24 25 13 41 24 35
24 -5 0 -30 -11 -55 -24z"/>
<path d="M7124 2907 c-19 -10 -20 -14 -8 -25 12 -11 14 -10 14 3 0 9 10 20 23
25 12 5 15 9 7 9 -8 0 -25 -5 -36 -12z"/>
<path d="M1348 2903 c7 -3 16 -2 19 1 4 3 -2 6 -13 5 -11 0 -14 -3 -6 -6z"/>
<path d="M7058 2903 c7 -3 16 -2 19 1 4 3 -2 6 -13 5 -11 0 -14 -3 -6 -6z"/>
<path d="M1408 2893 c6 -2 18 -2 25 0 6 3 1 5 -13 5 -14 0 -19 -2 -12 -5z"/>
<path d="M912 2865 c0 -16 2 -22 5 -12 2 9 2 23 0 30 -3 6 -5 -1 -5 -18z"/>
<path d="M1478 2883 c7 -3 16 -2 19 1 4 3 -2 6 -13 5 -11 0 -14 -3 -6 -6z"/>
<path d="M6955 2880 c-27 -7 -28 -8 -5 -8 14 0 34 3 45 8 25 11 2 11 -40 0z"/>
<path d="M6888 2863 c7 -3 16 -2 19 1 4 3 -2 6 -13 5 -11 0 -14 -3 -6 -6z"/>
<path d="M6828 2853 c7 -3 16 -2 19 1 4 3 -2 6 -13 5 -11 0 -14 -3 -6 -6z"/>
<path d="M7111 2844 c0 -11 3 -14 6 -6 3 7 2 16 -1 19 -3 4 -6 -2 -5 -13z"/>
<path d="M6768 2843 c6 -2 18 -2 25 0 6 3 1 5 -13 5 -14 0 -19 -2 -12 -5z"/>
<path d="M6941 2834 c0 -11 3 -14 6 -6 3 7 2 16 -1 19 -3 4 -6 -2 -5 -13z"/>
<path d="M684 2799 c14 -24 37 -78 51 -119 25 -68 52 -116 62 -107 2 2 -8 24
-21 48 -13 24 -31 68 -41 96 -9 29 -21 55 -26 58 -5 4 -9 11 -9 16 0 10 81
-28 91 -43 3 -5 12 -34 18 -65 7 -30 15 -52 18 -50 4 4 -5 46 -23 107 -3 12
12 8 60 -15 l64 -30 38 -129 c34 -115 58 -166 71 -152 3 2 -2 15 -10 28 -13
21 -23 49 -72 205 -7 23 -10 43 -6 45 3 2 1 19 -7 38 -10 29 -12 30 -9 8 5
-35 -3 -35 -80 3 -39 19 -63 38 -63 48 0 12 -2 13 -9 3 -6 -11 -15 -10 -47 5
-21 9 -47 24 -57 32 -13 11 -12 4 7 -30z"/>
<path d="M1878 2833 c7 -3 16 -2 19 1 4 3 -2 6 -13 5 -11 0 -14 -3 -6 -6z"/>
<path d="M1973 2823 c15 -2 37 -2 50 0 12 2 0 4 -28 4 -27 0 -38 -2 -22 -4z"/>
<path d="M6737 2823 c-4 -3 -7 -16 -6 -27 0 -19 1 -19 10 3 10 24 8 36 -4 24z"/>
<path d="M650 2815 c0 -5 5 -17 10 -25 5 -8 10 -10 10 -5 0 6 -5 17 -10 25 -5
8 -10 11 -10 5z"/>
<path d="M922 2800 c0 -14 2 -19 5 -12 2 6 2 18 0 25 -3 6 -5 1 -5 -13z"/>
<path d="M2070 2814 c38 -8 90 -9 90 -2 0 4 -24 7 -52 7 -29 -1 -46 -3 -38 -5z"/>
<path d="M7101 2804 c0 -11 3 -14 6 -6 3 7 2 16 -1 19 -3 4 -6 -2 -5 -13z"/>
<path d="M2201 2806 c3 -3 57 -11 120 -16 63 -5 135 -12 162 -15 26 -3 47 -2
47 3 0 5 -35 12 -77 16 -195 15 -258 18 -252 12z"/>
<path d="M6915 2713 c-23 -127 -29 -143 -56 -143 -12 0 -20 -3 -16 -6 3 -4 17
-4 30 0 22 5 26 16 47 121 13 64 20 118 17 121 -3 3 -13 -39 -22 -93z"/>
<path d="M2561 2776 c3 -4 69 -11 145 -16 76 -5 160 -12 187 -16 27 -3 47 -2
47 4 0 5 -24 12 -52 15 -89 11 -333 20 -327 13z"/>
<path d="M3095 2764 c41 -9 265 -19 265 -12 0 5 -26 8 -57 8 -32 0 -96 2 -143
5 -47 2 -76 2 -65 -1z"/>
<path d="M6722 2750 c0 -14 2 -19 5 -12 2 6 2 18 0 25 -3 6 -5 1 -5 -13z"/>
<path d="M7091 2754 c0 -11 3 -14 6 -6 3 7 2 16 -1 19 -3 4 -6 -2 -5 -13z"/>
<path d="M6148 2753 c6 -2 18 -2 25 0 6 3 1 5 -13 5 -14 0 -19 -2 -12 -5z"/>
<path d="M681 2735 c0 -5 6 -21 14 -35 8 -14 14 -20 14 -15 0 6 -6 21 -14 35
-8 14 -14 21 -14 15z"/>
<path d="M5335 2729 c-193 -10 -224 -16 -90 -18 127 -1 265 9 265 20 0 5 -3 8
-7 8 -5 -1 -80 -6 -168 -10z"/>
<path d="M5703 2733 c9 -2 23 -2 30 0 6 3 -1 5 -18 5 -16 0 -22 -2 -12 -5z"/>
<path d="M4408 2723 c6 -2 18 -2 25 0 6 3 1 5 -13 5 -14 0 -19 -2 -12 -5z"/>
<path d="M7076 2694 c-4 -20 -5 -38 -3 -40 3 -3 8 11 11 32 4 20 5 38 3 40 -3
3 -8 -11 -11 -32z"/>
<path d="M5855 2575 l-20 -150 -45 -6 -45 -6 41 -1 42 -2 -2 -40 c0 -22 2 -40
5 -40 10 0 16 58 8 72 -4 7 -4 17 0 23 11 14 44 246 39 276 -2 13 -12 -43 -23
-126z"/>
<path d="M6472 2700 c0 -14 2 -19 5 -12 2 6 2 18 0 25 -3 6 -5 1 -5 -13z"/>
<path d="M1123 2664 c2 -26 5 -30 27 -26 22 5 22 6 5 12 -10 3 -22 15 -26 26
-6 14 -7 11 -6 -12z"/>
<path d="M6191 2685 c-1 -5 -10 -62 -21 -125 -11 -63 -20 -115 -20 -115 0 -1
-17 0 -37 2 -33 2 -35 1 -13 -7 19 -7 11 -8 -35 -7 -33 1 -89 0 -125 -2 -59
-3 -62 -4 -30 -12 42 -10 227 4 241 18 11 11 51 232 45 248 -3 6 -5 6 -5 0z"/>
<path d="M7242 2653 c-11 -21 -25 -55 -31 -75 -7 -20 -23 -53 -37 -73 -28 -41
-31 -53 -8 -35 20 17 31 39 70 137 34 88 37 107 6 46z"/>
<path d="M716 2650 c3 -14 11 -32 16 -40 6 -10 7 -7 2 10 -3 14 -11 32 -16 40
-6 10 -7 7 -2 -10z"/>
<path d="M6462 2645 c0 -16 2 -22 5 -12 2 9 2 23 0 30 -3 6 -5 -1 -5 -18z"/>
<path d="M7183 2658 c-5 -7 -24 -58 -42 -113 -36 -108 -47 -125 -103 -161 -47
-30 -52 -30 -33 -1 8 13 27 63 40 111 32 108 45 137 59 129 6 -3 8 -3 4 2 -4
4 0 14 10 21 10 8 0 7 -25 -4 -37 -14 -43 -21 -44 -47 0 -16 -17 -77 -37 -135
l-37 -105 -65 -32 c-70 -34 -85 -39 -75 -23 8 13 64 220 65 238 0 6 -10 11
-22 11 -17 -1 -19 -2 -6 -6 13 -3 16 -9 9 -21 -4 -9 -21 -66 -36 -125 -22 -85
-33 -111 -49 -117 -21 -9 -21 -9 -1 -10 14 -1 10 -5 -15 -16 -28 -11 -30 -13
-7 -9 15 3 27 1 27 -4 0 -5 -22 -60 -49 -123 l-50 -113 -61 -20 c-34 -11 -58
-23 -55 -27 3 -3 -5 -5 -19 -4 -14 0 -26 1 -26 1 1 0 20 56 44 124 43 124 43
125 82 137 l39 13 -35 -4 -35 -5 30 15 30 15 -32 -6 c-18 -3 -33 -4 -33 -2 0
2 14 60 31 129 39 155 38 150 29 174 -5 15 -9 7 -14 -30 -11 -72 -67 -279 -77
-283 -4 -2 -6 -9 -3 -16 6 -16 -74 -257 -90 -271 -6 -5 -12 -23 -14 -40 -2
-16 -27 -74 -55 -129 l-52 -100 -70 -18 c-38 -9 -80 -20 -93 -23 -23 -6 -23
-5 -6 26 9 17 27 61 41 98 47 126 52 134 87 127 20 -4 26 -3 17 3 -11 7 -10
10 5 14 10 3 2 3 -18 0 -45 -6 -47 -1 -18 83 35 101 52 176 42 186 -6 6 -22 5
-43 -1 l-34 -11 33 5 c42 6 42 -3 -6 -146 -45 -135 -47 -139 -75 -139 -18 0
-19 -2 -7 -10 10 -7 0 -8 -35 -5 -39 4 -44 3 -25 -5 21 -8 19 -9 -17 -7 -24 1
-43 -1 -43 -5 0 -6 -69 0 -78 7 -4 3 58 227 70 251 8 18 17 21 52 18 33 -3 37
-2 21 6 -15 8 -8 9 30 5 43 -4 46 -3 20 6 -16 5 -52 7 -79 3 -44 -6 -48 -4
-42 12 3 11 14 66 26 124 11 58 23 116 25 130 4 17 3 20 -3 10 -5 -8 -22 -73
-37 -143 -19 -84 -34 -131 -44 -137 -9 -4 -68 -14 -131 -20 -72 -8 -107 -16
-95 -20 11 -4 -18 -6 -65 -5 -47 2 -71 1 -55 -2 l30 -6 -25 -8 c-21 -7 -20 -8
8 -4 28 4 32 2 28 -13 -3 -9 -19 -68 -35 -131 -17 -63 -34 -118 -39 -123 -8
-8 -292 -42 -298 -36 -1 2 10 64 25 138 30 150 26 146 124 149 20 0 37 6 37
12 0 8 -19 10 -65 6 -76 -7 -74 -13 -50 123 8 47 14 103 14 125 -1 23 -11 -18
-25 -99 -13 -77 -27 -143 -31 -147 -5 -4 -85 -11 -179 -15 l-171 -7 12 84 c7
46 15 116 18 154 7 89 -5 41 -31 -120 l-17 -110 -184 -9 c-126 -6 -189 -13
-198 -21 -12 -13 -43 -213 -43 -278 0 -18 -9 -94 -21 -169 l-22 -138 -183 0
-183 0 -10 -37 c-6 -21 -11 -51 -11 -68 0 -16 -3 -54 -6 -83 l-7 -52 -173 0
-174 0 0 110 c0 61 -1 113 -2 116 -2 3 81 5 183 4 144 0 188 2 197 13 6 7 13
62 16 122 5 114 -3 92 -21 -55 l-8 -65 -195 3 c-107 2 -196 5 -199 7 -2 3 -46
5 -96 5 -51 0 -133 3 -183 6 l-92 7 0 53 c0 31 -4 54 -10 54 -7 0 -10 -21 -8
-55 2 -30 5 -55 8 -55 3 0 5 -15 5 -32 0 -18 4 -72 8 -120 l7 -88 -47 0 c-72
0 -267 20 -275 28 -4 4 -16 53 -27 110 -11 56 -23 106 -26 111 -3 6 9 12 27
14 l33 4 -31 1 -30 2 -13 108 c-13 103 -26 160 -36 150 -11 -10 51 -396 95
-593 11 -49 20 -96 20 -104 0 -11 -20 -12 -117 -6 -65 3 -125 11 -134 15 -8 5
-21 28 -28 51 -24 80 -59 149 -76 149 -19 0 -18 -5 26 -119 16 -41 27 -76 25
-78 -2 -2 -34 1 -72 6 -38 6 -89 11 -113 13 l-44 2 -52 111 c-35 74 -49 112
-41 117 7 5 5 8 -5 8 -11 0 -24 21 -39 63 -13 34 -32 86 -42 115 -11 29 -26
52 -33 52 -8 0 -13 -6 -10 -12 36 -117 56 -173 97 -278 28 -69 55 -131 61
-139 10 -12 9 -14 -5 -8 -10 3 -59 14 -110 24 l-91 17 -32 51 c-54 85 -135
243 -161 313 -14 36 -32 78 -39 92 -14 24 -82 237 -91 283 -2 12 -7 37 -10 54
-3 18 -10 30 -15 27 -6 -3 -7 6 -4 23 5 26 5 27 -5 4 -7 -15 -7 -35 -1 -57 5
-19 7 -34 4 -34 -3 0 -1 -6 4 -12 6 -7 20 -49 31 -93 25 -92 99 -306 133 -380
12 -27 21 -51 20 -53 -3 -4 71 -146 91 -175 11 -15 17 -27 14 -27 -11 0 -186
49 -196 55 -6 4 -31 41 -56 83 -25 42 -53 88 -62 101 l-16 23 34 -6 35 -6 -35
13 c-22 9 -43 27 -56 50 -11 21 -24 34 -29 30 -4 -5 -5 -3 -2 4 4 6 -2 31 -12
55 -11 23 -20 36 -21 28 0 -9 -6 -6 -15 10 -29 50 -13 3 25 -75 21 -44 37 -81
36 -82 -1 -2 -47 12 -102 30 l-99 32 -50 100 c-27 55 -51 92 -53 83 -4 -19 51
-144 75 -170 23 -25 14 -23 -79 21 -81 39 -84 41 -130 118 -40 66 -68 123 -68
138 0 2 16 -3 36 -11 20 -8 38 -13 40 -11 3 2 -16 12 -42 22 -43 16 -48 23
-81 94 -19 42 -45 97 -58 124 -13 26 -19 47 -15 47 5 0 12 -4 15 -10 3 -5 14
-10 23 -9 13 0 11 3 -5 9 -23 10 -71 77 -84 120 -4 14 -8 18 -8 9 -1 -9 6 -33
15 -54 8 -20 13 -40 9 -43 -3 -3 -35 8 -72 24 l-67 29 -46 115 c-48 124 -58
136 -135 188 -55 37 -62 46 -87 112 -16 41 -17 42 -12 10 4 -19 13 -47 21 -63
14 -27 13 -27 -33 8 -48 37 -84 59 -84 52 0 -3 25 -23 56 -47 43 -33 61 -54
81 -101 31 -72 42 -72 14 0 -10 28 -18 51 -16 51 8 0 122 -79 132 -91 6 -8 23
-50 38 -94 15 -44 34 -93 42 -109 16 -31 18 -32 -55 17 -24 16 -55 47 -69 68
-27 42 -41 52 -23 18 20 -37 80 -97 125 -126 38 -24 51 -41 91 -128 25 -55 57
-112 70 -126 13 -14 56 -41 95 -60 70 -33 72 -35 111 -113 22 -44 51 -97 66
-118 22 -33 23 -41 11 -50 -11 -8 -11 -9 3 -4 11 3 19 -1 22 -12 3 -9 17 -29
31 -44 14 -15 24 -33 23 -40 -2 -7 2 -12 9 -11 7 2 21 -11 33 -27 27 -38 15
-38 -52 0 -29 17 -60 34 -68 39 -8 4 -20 18 -26 30 -17 33 -83 98 -105 104
-18 5 -18 4 0 -21 32 -44 189 -196 205 -198 19 -3 158 -115 152 -122 -3 -3
-21 7 -41 22 -56 43 -40 22 21 -28 31 -26 61 -43 66 -39 6 3 8 1 5 -4 -8 -13
137 -125 149 -115 4 4 4 2 1 -4 -8 -15 40 -47 55 -38 7 4 8 3 4 -4 -7 -11 26
-35 38 -27 3 3 4 2 1 -2 -6 -7 123 -92 199 -130 28 -14 80 -43 116 -64 141
-83 520 -228 740 -283 147 -37 366 -82 445 -90 259 -30 598 -34 816 -11 286
30 627 119 954 248 159 63 431 201 427 217 -1 6 2 9 8 5 20 -13 362 210 473
308 l32 29 -40 -28 -40 -28 25 28 c23 27 24 28 3 17 -12 -6 -31 -25 -43 -41
-18 -25 -120 -102 -180 -135 -21 -12 152 158 195 190 19 15 35 32 35 37 0 5
18 36 41 68 35 49 54 65 142 113 56 31 107 57 112 58 6 1 27 15 48 31 64 51
41 17 -60 -87 -76 -77 -80 -83 -20 -25 84 81 250 259 230 246 -21 -12 -15 4
15 43 38 48 47 65 34 60 -5 -2 -41 -42 -78 -89 -77 -96 -84 -103 -135 -129
l-37 -18 57 83 c47 70 67 90 123 124 37 22 71 40 76 40 10 0 62 53 62 64 0 5
-7 2 -17 -5 -14 -12 -16 -12 -11 1 3 9 17 15 33 15 19 -1 34 8 50 30 33 44 96
145 91 145 -3 0 -25 -30 -49 -67 -73 -113 -112 -127 -62 -24 17 37 45 73 72
96 25 21 57 54 71 74 15 20 30 37 34 37 3 -1 10 3 15 8 5 5 3 6 -4 2 -7 -4
-13 -5 -13 -3 0 9 81 191 90 202 5 6 7 15 3 18 -3 4 0 14 8 23 14 17 81 225
75 231 -2 2 -8 -2 -13 -9z m-143 -373 c-67 -141 -101 -176 -216 -229 -42 -20
-78 -36 -79 -36 -4 0 82 231 87 234 1 2 29 15 61 29 31 14 57 29 57 32 0 3 -9
1 -19 -5 -31 -16 -71 -30 -71 -24 0 10 90 45 100 39 5 -3 -7 -42 -26 -88 -20
-45 -42 -98 -50 -117 l-14 -35 29 31 c16 18 40 65 55 112 15 44 35 90 45 101
17 19 94 80 98 77 0 0 -25 -55 -57 -121z m-5778 -185 c11 0 16 -4 13 -10 -3
-5 1 -22 9 -37 9 -16 33 -68 55 -116 45 -98 42 -102 -44 -52 -59 34 -79 60
-129 166 l-44 97 61 -24 c33 -13 69 -24 79 -24z m4828 4 c0 -1 -4 -14 -9 -30
-6 -16 -24 -75 -41 -131 -21 -69 -36 -103 -45 -103 -8 0 -15 -4 -15 -9 0 -5
-8 -7 -18 -4 -10 2 -62 -3 -116 -12 -54 -8 -101 -13 -104 -10 -6 5 33 181 52
235 12 35 13 35 91 45 44 6 74 13 68 15 -7 3 21 5 62 5 41 0 75 0 75 -1z
m-680 -185 c-16 -72 -32 -135 -37 -139 -7 -7 -323 -34 -329 -28 -1 2 8 64 20
138 20 116 25 135 42 138 19 2 240 18 300 21 l32 1 -28 -131z m1405 59 c-19
-40 -46 -88 -61 -106 -26 -34 -101 -88 -109 -80 -3 2 16 50 42 106 47 101 48
102 95 118 26 8 50 20 53 25 4 5 8 9 10 9 2 0 -11 -33 -30 -72z m-1745 60 c-1
-28 -50 -272 -56 -278 -5 -4 -87 -10 -181 -14 -167 -5 -173 -5 -173 14 0 48
22 227 30 247 9 21 16 23 142 26 73 1 157 4 186 5 28 1 52 1 52 0z m1620 -72
c0 -3 -22 -50 -50 -105 -42 -85 -56 -104 -87 -120 -42 -21 -113 -42 -113 -34
0 3 21 52 46 109 30 66 53 106 65 109 11 4 17 11 14 16 -3 5 0 6 7 4 8 -3 31
1 53 9 41 15 65 19 65 12z m-435 -138 c-20 -64 -78 -195 -93 -205 -9 -7 -26
-13 -40 -13 -13 0 -21 -3 -19 -7 3 -5 -7 -8 -21 -9 -15 0 -53 -4 -84 -8 l-58
-8 26 68 c14 38 35 93 46 122 11 30 26 52 34 52 8 0 13 4 10 9 -3 4 5 6 17 4
12 -2 47 0 77 5 30 5 68 10 83 11 25 1 28 -2 22 -21z m-318 -14 c-3 -3 -12 -4
-19 -1 -8 3 -5 6 6 6 11 1 17 -2 13 -5z m63 -11 c0 -14 -84 -221 -93 -229 -10
-10 -203 -44 -245 -44 -10 0 54 216 70 237 5 6 41 14 81 19 52 5 65 9 47 14
-14 4 12 6 58 6 45 0 82 -2 82 -3z m-302 -45 c-3 -7 -20 -58 -38 -113 -18 -55
-37 -105 -44 -112 -11 -11 -266 -47 -274 -38 -4 4 16 93 49 216 l9 37 108 9
c163 15 195 15 190 1z m-333 -45 c-3 -16 -18 -71 -33 -123 -32 -111 -17 -103
-217 -114 -120 -7 -127 -7 -122 11 3 10 16 66 28 125 l22 107 71 5 c39 4 89 8
111 9 22 2 64 4 93 5 54 2 54 2 47 -25z m-345 13 c0 -14 -61 -250 -65 -255 -7
-6 -326 -24 -331 -18 -5 5 34 248 41 255 2 3 76 8 162 12 87 4 166 8 176 8 9
1 17 0 17 -2z m1502 -73 c-58 -95 -98 -135 -163 -161 l-50 -21 21 34 c12 20
38 65 58 101 36 64 40 67 107 94 39 15 71 28 72 29 1 1 -19 -34 -45 -76z
m-160 -35 c-11 -18 -31 -54 -45 -79 -52 -96 -53 -96 -147 -119 -25 -6 -53 -13
-62 -16 -13 -4 -3 21 34 93 28 54 53 100 54 102 5 5 156 50 172 50 10 1 8 -8
-6 -31z m-204 -35 c-30 -69 -115 -207 -132 -213 -26 -11 -178 -41 -183 -37 -2
2 19 51 46 109 l49 105 59 12 c60 12 142 28 156 30 5 1 7 -2 5 -6z m-4470 -60
c12 -5 142 -186 142 -197 0 -17 -140 68 -176 106 -38 39 -104 130 -104 142 0
4 69 -22 138 -51z m4199 -10 c-29 -65 -97 -192 -105 -197 -12 -7 -214 -38
-218 -33 -2 2 16 51 39 110 31 79 47 108 62 111 30 7 197 33 217 35 15 1 16
-2 5 -26z m-4040 -33 c40 -11 75 -25 78 -30 4 -6 11 -7 17 -4 7 4 8 2 4 -4 -4
-6 16 -48 44 -93 28 -45 49 -83 47 -85 -5 -6 -150 45 -168 59 -15 11 -139 183
-139 192 0 3 10 0 23 -5 12 -5 54 -19 94 -30z m3726 -82 c-25 -57 -51 -109
-57 -116 -11 -11 -246 -46 -254 -37 -2 2 12 52 31 112 l35 108 74 8 c40 4 100
11 133 16 33 5 65 9 72 10 6 0 -9 -45 -34 -101z m-1815 56 l72 -6 0 -116 0
-117 -162 8 c-90 4 -168 10 -175 12 -6 2 -14 34 -18 72 -3 37 -10 90 -14 116
l-8 48 116 -6 c64 -3 149 -8 189 -11z m1496 -109 l-39 -103 -40 -6 c-22 -3
-88 -8 -147 -12 l-107 -6 19 68 c11 38 26 89 33 114 l13 45 149 10 c83 6 152
6 153 2 2 -4 -13 -54 -34 -112z m-328 -10 c-18 -57 -35 -107 -39 -111 -7 -7
-298 -24 -306 -18 -4 3 11 93 30 176 l11 47 71 4 c40 1 115 4 168 5 l96 2 -31
-105z m-347 13 c-10 -46 -21 -98 -25 -115 l-6 -33 -164 0 c-137 0 -164 2 -164
15 0 8 5 59 11 115 l12 100 177 0 178 0 -19 -82z m1630 25 c-64 -95 -147 -163
-219 -178 l-34 -7 17 23 c54 78 92 135 92 141 0 17 27 31 91 48 38 10 73 19
77 19 4 1 -6 -20 -24 -46z m-4440 -38 c64 -26 82 -40 150 -115 42 -46 101
-111 131 -144 l55 -60 -54 44 c-30 24 -56 52 -58 60 -3 9 -33 30 -67 47 -37
18 -95 62 -142 106 -43 41 -92 86 -109 102 -23 20 -24 23 -4 8 14 -10 58 -31
98 -48z m4218 -52 c-97 -123 -94 -122 -192 -148 -49 -14 -91 -25 -91 -25 -3 0
118 184 127 194 7 8 153 41 196 45 7 0 -11 -29 -40 -66z m-4112 19 c-3 -3 -11
0 -18 7 -9 10 -8 11 6 5 10 -3 15 -9 12 -12z m166 -62 c17 -9 139 -162 139
-174 0 -19 -135 49 -184 93 -26 24 -106 125 -106 134 0 5 123 -39 151 -53z
m3713 -2 c-109 -153 -97 -145 -248 -164 l-59 -7 48 89 c26 49 51 93 55 98 5 4
53 14 107 21 149 19 140 22 97 -37z m-2406 -5 c68 -4 115 -11 117 -17 2 -6 6
-45 9 -86 l5 -75 -12 53 -12 53 -107 5 c-74 4 -108 2 -108 -5 0 -6 10 -12 23
-12 l22 -2 -22 -4 c-13 -2 -23 -9 -23 -15 0 -6 -10 -8 -25 -4 -19 5 -25 3 -25
-10 0 -28 -10 -9 -24 42 -7 27 -16 60 -21 73 -7 24 -7 24 41 17 26 -3 99 -9
162 -13z m2160 8 c-1 -4 -28 -49 -58 -99 l-55 -90 -95 -11 c-52 -7 -106 -14
-120 -17 -26 -5 -26 -4 22 96 27 55 52 100 56 101 4 0 52 6 107 13 130 17 147
18 143 7z m-3324 -36 c102 -26 111 -33 161 -108 26 -40 57 -82 68 -94 22 -25
13 -31 -12 -10 -22 19 -97 47 -125 47 -15 0 -36 16 -62 48 -69 83 -106 132
-99 132 4 0 35 -7 69 -15z m1589 -2 l57 -6 -2 -66 c-1 -43 -3 -52 -5 -26 -6
65 -9 70 -37 51 -14 -8 -26 -11 -28 -6 -4 12 -175 22 -213 12 -19 -5 -32 -17
-37 -33 -6 -20 -7 -18 -4 9 1 18 -1 35 -6 38 -4 3 -8 14 -8 26 0 20 3 20 113
14 61 -4 138 -9 170 -13z m1424 -10 c-8 -16 -31 -62 -51 -104 l-37 -77 -120
-7 c-66 -4 -122 -5 -124 -3 -2 2 10 47 27 100 l30 96 107 7 c58 3 115 7 126 9
55 9 57 8 42 -21z m-1004 -38 c-7 -50 -13 -58 -13 -19 0 21 -3 25 -9 15 -8
-12 -14 -13 -36 -3 -16 7 -75 12 -150 12 l-124 0 -4 -42 c-3 -33 -4 -29 -5 21
l-2 63 175 -3 174 -4 -6 -40z m697 41 c0 -2 -17 -46 -39 -97 -31 -75 -40 -89
-45 -71 -6 19 -15 22 -59 22 -29 0 -67 -4 -84 -9 -35 -10 -96 0 -75 13 19 11
14 26 -8 26 -12 0 -20 -7 -20 -17 0 -9 -3 -14 -6 -10 -4 3 -1 35 7 71 l13 65
115 4 c64 1 135 4 159 5 23 1 42 0 42 -2z m-359 -60 c-9 -33 -20 -52 -26 -47
-5 4 -30 9 -55 10 -25 2 -46 7 -48 12 -2 5 -30 9 -62 9 -32 0 -60 4 -62 9 -1
5 -14 11 -28 13 -22 3 -26 -2 -31 -32 -5 -28 -7 -30 -8 -9 0 15 2 41 5 58 l7
31 162 0 162 0 -16 -54z m1496 48 c-3 -3 -12 -4 -19 -1 -8 3 -5 6 6 6 11 1 17
-2 13 -5z m-54 -66 c-26 -26 -78 -64 -116 -84 l-70 -37 52 64 c67 81 101 106
145 105 l35 -1 -46 -47z m-3488 16 l80 -16 46 -82 c26 -44 45 -82 44 -84 -6
-7 -142 21 -167 34 -30 15 -61 54 -104 128 l-28 49 25 -6 c13 -4 60 -14 104
-23z m868 9 c-7 -2 -19 -2 -25 0 -7 3 -2 5 12 5 14 0 19 -2 13 -5z m2458 -72
c-67 -77 -67 -77 -159 -115 -95 -40 -96 -34 -13 67 44 53 64 70 96 78 22 6 51
15 65 19 61 20 63 12 11 -49z m-3840 12 c13 -16 12 -17 -3 -4 -17 13 -22 21
-14 21 2 0 10 -8 17 -17z m779 -3 c120 -15 124 -16 109 -33 -16 -17 -127 -7
-139 13 -8 12 -10 12 -10 1 0 -9 -8 -12 -25 -9 -21 4 -23 3 -14 -13 17 -32 2
-21 -20 15 -24 39 -26 47 -8 42 6 -2 55 -10 107 -16z m1427 -37 c-3 -10 -5 -4
-5 12 0 17 2 24 5 18 2 -7 2 -21 0 -30z m1449 15 c-8 -12 -39 -50 -68 -84 -48
-57 -57 -63 -93 -64 -22 0 -64 -7 -92 -14 -56 -15 -65 -10 -33 19 11 10 37 44
57 76 35 54 41 59 83 65 25 3 65 9 90 14 73 13 73 13 56 -12z m-1124 -20 c-8
-8 -9 -4 -5 13 4 13 8 18 11 10 2 -7 -1 -18 -6 -23z m-1382 1 c44 -7 37 -7
-39 -4 -52 3 -114 5 -138 5 -23 0 -43 5 -43 10 0 11 116 5 220 -11z m-861 -56
c33 -37 59 -69 57 -71 -9 -9 -107 50 -152 92 l-49 45 42 1 c39 0 45 -4 102
-67z m1125 27 c91 -8 140 -20 86 -20 -61 0 -256 24 -265 32 -6 6 6 8 35 4 25
-3 89 -10 144 -16z m1956 -39 c-23 -33 -51 -68 -61 -77 -19 -17 -19 -17 -13
-1 3 10 3 17 -2 16 -31 -5 -64 3 -64 16 0 9 -9 15 -24 15 -24 0 -28 13 -13 38
5 6 4 12 0 12 -5 0 -15 -6 -22 -12 -10 -11 -11 -10 -5 5 3 9 16 19 28 22 27 7
152 22 189 24 l28 1 -41 -59z m-2970 17 c54 -23 120 -67 120 -80 0 -5 -6 -6
-12 -2 -8 4 -10 3 -5 -2 5 -5 12 -8 15 -7 9 2 52 -38 52 -48 0 -4 -18 -3 -41
2 -57 13 -137 67 -183 124 -44 53 -40 54 54 13z m340 -18 c12 -16 19 -30 16
-30 -2 0 -14 14 -26 30 -12 17 -19 30 -16 30 2 0 14 -13 26 -30z m2038 23
c-38 -2 -98 -2 -135 0 -38 2 -7 3 67 3 74 0 105 -1 68 -3z m-998 -12 c83 -8
83 -8 20 -8 -36 -1 -108 3 -160 7 l-95 7 75 0 c41 1 113 -2 160 -6z m707 3
c-3 -3 -12 -4 -19 -1 -8 3 -5 6 6 6 11 1 17 -2 13 -5z m633 -3 c0 -6 -4 -13
-10 -16 -5 -3 -10 -2 -10 4 0 5 -19 12 -42 14 -41 3 -41 4 10 5 28 1 52 -2 52
-7z m-921 -17 c2 -2 -66 -4 -152 -4 -88 0 -158 4 -162 10 -5 8 304 3 314 -6z
m739 9 c-10 -2 -28 -2 -40 0 -13 2 -5 4 17 4 22 1 32 -1 23 -4z m-175 -10
c-40 -2 -106 -2 -145 0 -40 1 -8 3 72 3 80 0 112 -2 73 -3z m1027 3 c0 -7 -66
-46 -76 -46 -5 0 9 12 31 25 42 26 45 28 45 21z m-3090 -40 c8 -3 -15 -2 -52
1 -58 5 -68 3 -68 -11 0 -9 3 -16 8 -16 4 0 13 -10 21 -22 13 -21 13 -22 -3
-9 -9 8 -30 30 -46 51 l-29 36 77 -13 c42 -7 84 -15 92 -17z m1563 27 c-7 -2
-21 -2 -30 0 -10 3 -4 5 12 5 17 0 24 -2 18 -5z"/>
<path d="M3180 1155 c0 -8 2 -15 4 -15 2 0 6 7 10 15 3 8 1 15 -4 15 -6 0 -10
-7 -10 -15z"/>
<path d="M3733 1183 c9 -2 23 -2 30 0 6 3 -1 5 -18 5 -16 0 -22 -2 -12 -5z"/>
<path d="M6702 2640 c0 -14 2 -19 5 -12 2 6 2 18 0 25 -3 6 -5 1 -5 -13z"/>
<path d="M1188 2633 c6 -2 18 -2 25 0 6 3 1 5 -13 5 -14 0 -19 -2 -12 -5z"/>
<path d="M1238 2623 c7 -3 16 -2 19 1 4 3 -2 6 -13 5 -11 0 -14 -3 -6 -6z"/>
<path d="M1137 2575 c3 -27 9 -59 14 -70 l8 -20 0 20 c0 11 -6 43 -14 70 l-14
50 6 -50z"/>
<path d="M1350 2610 c0 -5 5 -10 11 -10 5 0 7 5 4 10 -3 6 -8 10 -11 10 -2 0
-4 -4 -4 -10z"/>
<path d="M1594 2598 c2 -20 -1 -28 -13 -29 -9 -1 2 -5 23 -10 21 -5 41 -7 44
-4 3 3 -2 5 -11 5 -9 0 -24 15 -32 33 -15 31 -15 31 -11 5z"/>
<path d="M6452 2590 c0 -14 2 -19 5 -12 2 6 2 18 0 25 -3 6 -5 1 -5 -13z"/>
<path d="M6692 2590 c0 -14 2 -19 5 -12 2 6 2 18 0 25 -3 6 -5 1 -5 -13z"/>
<path d="M1388 2593 c6 -2 18 -2 25 0 6 3 1 5 -13 5 -14 0 -19 -2 -12 -5z"/>
<path d="M5512 2580 c0 -14 2 -19 5 -12 2 6 2 18 0 25 -3 6 -5 1 -5 -13z"/>
<path d="M6995 2584 c-40 -14 -40 -14 -5 -9 19 3 39 10 44 15 12 12 12 12 -39
-6z"/>
<path d="M1346 2563 c9 -38 14 -42 14 -10 0 14 -5 29 -10 32 -7 4 -8 -3 -4
-22z"/>
<path d="M1448 2583 c6 -2 18 -2 25 0 6 3 1 5 -13 5 -14 0 -19 -2 -12 -5z"/>
<path d="M1518 2573 c7 -3 16 -2 19 1 4 3 -2 6 -13 5 -11 0 -14 -3 -6 -6z"/>
<path d="M6442 2535 c0 -16 2 -22 5 -12 2 9 2 23 0 30 -3 6 -5 -1 -5 -18z"/>
<path d="M6775 2550 c-25 -11 1 -11 35 0 20 6 21 8 5 8 -11 0 -29 -3 -40 -8z"/>
<path d="M1693 2543 c9 -2 23 -2 30 0 6 3 -1 5 -18 5 -16 0 -22 -2 -12 -5z"/>
<path d="M5503 2515 c0 -22 2 -30 4 -17 2 12 2 30 0 40 -3 9 -5 -1 -4 -23z"/>
<path d="M1602 2514 c7 -15 14 -21 16 -15 5 16 -5 41 -17 41 -7 0 -6 -10 1
-26z"/>
<path d="M1763 2533 c9 -2 23 -2 30 0 6 3 -1 5 -18 5 -16 0 -22 -2 -12 -5z"/>
<path d="M6828 2533 c7 -3 16 -2 19 1 4 3 -2 6 -13 5 -11 0 -14 -3 -6 -6z"/>
<path d="M1828 2523 c6 -2 18 -2 25 0 6 3 1 5 -13 5 -14 0 -19 -2 -12 -5z"/>
<path d="M6788 2523 c7 -3 16 -2 19 1 4 3 -2 6 -13 5 -11 0 -14 -3 -6 -6z"/>
<path d="M1918 2513 c7 -3 16 -2 19 1 4 3 -2 6 -13 5 -11 0 -14 -3 -6 -6z"/>
<path d="M1998 2503 c7 -3 16 -2 19 1 4 3 -2 6 -13 5 -11 0 -14 -3 -6 -6z"/>
<path d="M1885 2490 c3 -5 8 -10 11 -10 2 0 4 5 4 10 0 6 -5 10 -11 10 -5 0
-7 -4 -4 -10z"/>
<path d="M2078 2493 c7 -3 16 -2 19 1 4 3 -2 6 -13 5 -11 0 -14 -3 -6 -6z"/>
<path d="M6430 2492 c0 -7 -15 -13 -32 -13 l-33 -1 30 -7 c40 -8 41 -27 10
-151 -14 -56 -24 -104 -21 -107 2 -2 19 57 37 132 24 103 29 139 21 147 -9 9
-12 9 -12 0z"/>
<path d="M1621 2464 c0 -11 3 -14 6 -6 3 7 2 16 -1 19 -3 4 -6 -2 -5 -13z"/>
<path d="M2315 2470 c40 -9 152 -13 144 -6 -2 2 -44 6 -94 9 -61 3 -77 2 -50
-3z"/>
<path d="M1166 2443 c4 -16 11 -39 16 -52 7 -18 5 -22 -6 -18 -32 13 -98 28
-102 24 -5 -5 105 -34 156 -41 l35 -5 -32 11 c-27 9 -34 18 -44 59 -7 27 -17
49 -21 49 -5 0 -5 -12 -2 -27z"/>
<path d="M6298 2463 c6 -2 18 -2 25 0 6 3 1 5 -13 5 -14 0 -19 -2 -12 -5z"/>
<path d="M2205 2450 c3 -5 11 -10 16 -10 6 0 7 5 4 10 -3 6 -11 10 -16 10 -6
0 -7 -4 -4 -10z"/>
<path d="M2488 2453 c12 -2 32 -2 45 0 12 2 2 4 -23 4 -25 0 -35 -2 -22 -4z"/>
<path d="M6388 2453 c6 -2 18 -2 25 0 6 3 1 5 -13 5 -14 0 -19 -2 -12 -5z"/>
<path d="M2600 2442 c8 -5 83 -15 165 -21 83 -7 161 -14 175 -17 17 -4 22 -2
15 5 -6 6 -67 15 -135 21 -69 5 -150 12 -180 15 -35 4 -50 2 -40 -3z"/>
<path d="M5492 2430 c0 -14 2 -19 5 -12 2 6 2 18 0 25 -3 6 -5 1 -5 -13z"/>
<path d="M6303 2443 c9 -2 25 -2 35 0 9 3 1 5 -18 5 -19 0 -27 -2 -17 -5z"/>
<path d="M6203 2433 c9 -2 23 -2 30 0 6 3 -1 5 -18 5 -16 0 -22 -2 -12 -5z"/>
<path d="M3130 2420 c44 -10 240 -18 240 -9 0 6 -168 20 -235 18 l-40 -1 35
-8z"/>
<path d="M7120 2378 c-12 -29 -35 -79 -51 -111 -16 -32 -25 -55 -20 -53 15 10
105 205 98 213 -3 2 -14 -20 -27 -49z"/>
<path d="M1631 2404 c0 -11 3 -14 6 -6 3 7 2 16 -1 19 -3 4 -6 -2 -5 -13z"/>
<path d="M3410 2409 c0 -4 48 -10 108 -13 59 -4 149 -9 200 -12 58 -4 92 -2
92 4 0 6 -41 13 -92 16 -153 10 -308 12 -308 5z"/>
<path d="M5618 2403 c18 -2 45 -2 60 0 15 2 0 4 -33 4 -33 0 -45 -2 -27 -4z"/>
<path d="M5361 2396 c11 -9 120 -16 114 -6 -3 5 -31 10 -62 10 -31 0 -54 -2
-52 -4z"/>
<path d="M5528 2393 c12 -2 30 -2 40 0 9 3 -1 5 -23 4 -22 0 -30 -2 -17 -4z"/>
<path d="M5733 2393 c15 -2 39 -2 55 0 15 2 2 4 -28 4 -30 0 -43 -2 -27 -4z"/>
<path d="M4003 2383 c48 -2 125 -2 170 0 45 1 6 3 -88 3 -93 0 -130 -2 -82 -3z"/>
<path d="M4453 2383 c-236 -5 -210 -23 32 -23 167 0 195 2 195 15 0 11 -9 14
-32 13 -18 -1 -106 -4 -195 -5z"/>
<path d="M4863 2381 c-78 -3 -145 -9 -149 -13 -9 -10 170 -10 294 -2 94 7 131
26 45 22 -27 -1 -112 -4 -190 -7z"/>
<path d="M860 2370 c0 -6 16 -27 36 -48 l36 -37 -33 48 c-34 49 -39 54 -39 37z"/>
<path d="M1644 2318 c1 -56 4 -68 18 -68 15 0 15 5 2 58 -8 31 -16 62 -18 67
-2 6 -3 -20 -2 -57z"/>
<path d="M5288 2373 c6 -2 18 -2 25 0 6 3 1 5 -13 5 -14 0 -19 -2 -12 -5z"/>
<path d="M5338 2373 c7 -3 16 -2 19 1 4 3 -2 6 -13 5 -11 0 -14 -3 -6 -6z"/>
<path d="M1190 2338 c0 -7 5 -20 10 -28 8 -12 10 -11 10 7 0 12 -4 25 -10 28
-5 3 -10 0 -10 -7z"/>
<path d="M1278 2343 c7 -3 16 -2 19 1 4 3 -2 6 -13 5 -11 0 -14 -3 -6 -6z"/>
<path d="M1318 2333 c7 -3 16 -2 19 1 4 3 -2 6 -13 5 -11 0 -14 -3 -6 -6z"/>
<path d="M4700 2329 c0 -8 -7 -70 -15 -139 -8 -69 -15 -128 -15 -132 0 -5 -88
-8 -195 -8 -173 0 -195 -2 -195 -16 0 -13 7 -15 31 -10 17 3 103 6 190 6 154
0 159 1 173 23 14 22 42 275 31 285 -3 3 -5 -1 -5 -9z"/>
<path d="M1358 2323 c7 -3 16 -2 19 1 4 3 -2 6 -13 5 -11 0 -14 -3 -6 -6z"/>
<path d="M1403 2322 c-11 -7 0 -52 13 -52 3 0 3 8 0 17 -4 9 -2 20 5 23 6 4 7
10 2 13 -5 3 -14 3 -20 -1z"/>
<path d="M5821 2304 c0 -11 3 -14 6 -6 3 7 2 16 -1 19 -3 4 -6 -2 -5 -13z"/>
<path d="M930 2253 c37 -49 99 -151 93 -156 -3 -3 10 -19 29 -36 24 -23 30
-33 20 -39 -14 -10 -5 -20 66 -67 24 -16 50 -43 58 -59 8 -17 12 -23 9 -13 -2
9 -1 17 4 17 12 0 34 -28 81 -103 42 -67 47 -95 13 -65 -30 25 -41 29 -49 16
-4 -7 -3 -10 1 -5 5 4 25 -8 44 -26 41 -38 132 -97 150 -97 14 0 -32 41 -67
59 -13 7 -21 15 -18 18 3 3 -7 22 -23 42 -15 20 -41 60 -56 89 -21 38 -50 70
-99 108 -38 30 -66 54 -63 54 4 0 -16 28 -44 63 -27 34 -64 87 -81 117 -41 70
-69 110 -81 110 -5 0 1 -12 13 -27z m180 -248 c7 -8 8 -15 2 -15 -5 0 -15 7
-22 15 -7 8 -8 15 -2 15 5 0 15 -7 22 -15z m245 -295 c3 -5 2 -10 -4 -10 -5 0
-13 5 -16 10 -3 6 -2 10 4 10 5 0 13 -4 16 -10z"/>
<path d="M5811 2234 c0 -11 3 -14 6 -6 3 7 2 16 -1 19 -3 4 -6 -2 -5 -13z"/>
<path d="M2261 2204 c0 -11 3 -14 6 -6 3 7 2 16 -1 19 -3 4 -6 -2 -5 -13z"/>
<path d="M6558 2213 c7 -3 16 -2 19 1 4 3 -2 6 -13 5 -11 0 -14 -3 -6 -6z"/>
<path d="M1436 2165 c3 -16 35 -106 71 -200 35 -93 65 -177 66 -186 1 -9 7
-16 14 -16 16 0 19 -8 -22 87 -19 45 -35 86 -35 92 0 5 -11 33 -25 63 -15 30
-37 85 -51 122 -13 37 -22 55 -18 38z"/>
<path d="M5795 2164 c-4 -16 -8 -35 -11 -41 -2 -7 0 -13 5 -13 9 0 23 71 16
78 -2 2 -7 -9 -10 -24z"/>
<path d="M6528 2183 c7 -3 16 -2 19 1 4 3 -2 6 -13 5 -11 0 -14 -3 -6 -6z"/>
<path d="M2268 2138 c-3 -15 -1 -29 4 -30 4 -2 9 -27 9 -56 2 -85 31 -186 55
-190 12 -2 15 0 7 5 -6 5 -25 73 -40 153 -20 99 -31 136 -35 118z"/>
<path d="M2378 2153 c12 -2 30 -2 40 0 9 3 -1 5 -23 4 -22 0 -30 -2 -17 -4z"/>
<path d="M6243 2153 c9 -2 23 -2 30 0 6 3 -1 5 -18 5 -16 0 -22 -2 -12 -5z"/>
<path d="M2468 2143 c12 -2 30 -2 40 0 9 3 -1 5 -23 4 -22 0 -30 -2 -17 -4z"/>
<path d="M2553 2133 c9 -2 23 -2 30 0 6 3 -1 5 -18 5 -16 0 -22 -2 -12 -5z"/>
<path d="M1971 2118 c0 -9 -4 -25 -7 -35 -5 -17 -5 -17 6 0 6 10 9 25 7 35 -4
15 -5 15 -6 0z"/>
<path d="M2643 2123 c9 -2 23 -2 30 0 6 3 -1 5 -18 5 -16 0 -22 -2 -12 -5z"/>
<path d="M2743 2113 c15 -2 39 -2 55 0 15 2 2 4 -28 4 -30 0 -43 -2 -27 -4z"/>
<path d="M2610 2103 c0 -5 10 -70 22 -145 l21 -138 31 1 c27 0 29 1 10 9 -22
9 -23 13 -55 208 -7 39 -16 72 -20 72 -5 0 -9 -3 -9 -7z"/>
<path d="M2863 2103 c15 -2 39 -2 55 0 15 2 2 4 -28 4 -30 0 -43 -2 -27 -4z"/>
<path d="M3090 2090 c146 -16 300 -26 300 -19 0 7 -108 16 -275 23 l-110 5 85
-9z"/>
<path d="M1691 2084 c-2 -19 32 -109 46 -122 11 -11 13 -10 13 8 0 13 -4 19
-11 14 -8 -4 -9 1 -5 17 3 13 3 17 -1 9 -4 -10 -12 2 -24 35 -10 28 -18 45
-18 39z"/>
<path d="M5623 2083 c9 -2 25 -2 35 0 9 3 1 5 -18 5 -19 0 -27 -2 -17 -5z"/>
<path d="M1976 2054 c-4 -14 -5 -28 -3 -31 3 -2 8 8 11 23 4 14 5 28 3 31 -3
2 -8 -8 -11 -23z"/>
<path d="M3430 2064 c0 -11 26 -14 129 -14 70 0 156 -3 190 -6 40 -5 61 -3 61
4 0 11 -81 19 -262 25 -95 4 -118 2 -118 -9z"/>
<path d="M3850 2053 c0 -6 80 -13 191 -17 172 -6 212 -5 198 8 -10 9 -389 18
-389 9z"/>
<path d="M3014 1901 c3 -18 6 -49 6 -67 0 -19 4 -34 9 -34 12 0 2 112 -12 125
-6 7 -8 -1 -3 -24z"/>
<path d="M6464 1923 c15 -4 16 -7 5 -15 -11 -7 -11 -9 -1 -6 20 5 16 23 -5 25
-15 2 -15 1 1 -4z"/>
<path d="M6408 1913 c6 -2 18 -2 25 0 6 3 1 5 -13 5 -14 0 -19 -2 -12 -5z"/>
<path d="M6408 1893 c6 -2 18 -2 25 0 6 3 1 5 -13 5 -14 0 -19 -2 -12 -5z"/>
<path d="M2345 1723 c31 -115 47 -149 66 -138 3 3 -4 35 -16 72 -13 38 -31 96
-41 131 -9 34 -23 62 -30 62 -9 0 -3 -35 21 -127z"/>
<path d="M2660 1795 c0 -8 9 -57 20 -108 11 -50 21 -101 23 -112 2 -11 6 -27
9 -35 13 -36 58 -211 58 -224 0 -13 20 -26 42 -26 7 0 7 4 0 13 -5 6 -22 57
-37 112 -16 55 -33 106 -38 113 -6 8 -5 12 3 12 9 0 9 4 3 13 -6 6 -23 65 -37
129 -15 65 -32 120 -37 123 -5 4 -9 -1 -9 -10z"/>
<path d="M1530 1786 c0 -2 7 -7 16 -10 8 -3 12 -2 9 4 -6 10 -25 14 -25 6z"/>
<path d="M3446 1760 c11 -11 364 -28 364 -18 0 9 -79 16 -239 22 -77 3 -130 1
-125 -4z"/>
<path d="M3890 1729 c67 -11 340 -11 340 1 0 6 -70 10 -192 9 -131 -1 -179 -4
-148 -10z"/>
<path d="M4267 1733 c-19 -19 4 -23 126 -23 146 0 237 8 237 21 0 10 -353 12
-363 2z"/>
<path d="M3822 1540 c0 -14 2 -19 5 -12 2 6 2 18 0 25 -3 6 -5 1 -5 -13z"/>
<path d="M6470 1515 c-13 -14 -29 -25 -36 -25 -6 0 -40 -31 -73 -69 -34 -38
-82 -81 -106 -96 -25 -14 -45 -30 -45 -35 0 -16 15 -12 54 15 20 14 43 25 50
25 17 0 59 46 62 68 2 9 31 42 66 74 35 31 60 59 57 62 -3 3 -16 -5 -29 -19z"/>
<path d="M3820 1498 c0 -9 5 -20 10 -23 13 -8 13 5 0 25 -8 13 -10 13 -10 -2z"/>
<path d="M3203 1493 c15 -2 37 -2 50 0 12 2 0 4 -28 4 -27 0 -38 -2 -22 -4z"/>
<path d="M3343 1483 c15 -2 39 -2 55 0 15 2 2 4 -28 4 -30 0 -43 -2 -27 -4z"/>
<path d="M2038 1433 c7 -3 16 -2 19 1 4 3 -2 6 -13 5 -11 0 -14 -3 -6 -6z"/>
<path d="M2138 1413 c7 -3 16 -2 19 1 4 3 -2 6 -13 5 -11 0 -14 -3 -6 -6z"/>
<path d="M2968 1273 c6 -2 18 -2 25 0 6 3 1 5 -13 5 -14 0 -19 -2 -12 -5z"/>
<path d="M3078 1263 c7 -3 16 -2 19 1 4 3 -2 6 -13 5 -11 0 -14 -3 -6 -6z"/>
<path d="M3116 1085 c-3 -9 0 -15 9 -15 16 0 20 16 6 24 -5 3 -11 -1 -15 -9z"/>
</g>
</svg>
